<svg width="179" height="28" viewBox="0 0 179 28" fill="none" xmlns="http://www.w3.org/2000/svg">
<path d="M1.89576 20.4678V22.7283L3.39778 20.4678H4.689L3.08156 22.8757L4.87346 26.0946H3.52953L2.31737 23.7849L1.8694 24.4237V26.0946H0.683594V20.4678H1.8694H1.89576Z" fill="white"/>
<path d="M6.13798 23.9815C6.13798 23.1215 6.19067 22.4827 6.74405 22.4827C7.21838 22.4827 7.35014 22.925 7.35014 23.9815C7.35014 25.0381 7.19203 25.4804 6.74405 25.4804C6.19067 25.4804 6.13798 24.8661 6.13798 23.9815ZM4.97852 23.9815C4.97852 25.4558 5.34743 26.2421 6.74405 26.2175C8.06162 26.2175 8.50959 25.4312 8.50959 23.9815C8.50959 22.5318 8.14068 21.721 6.74405 21.7455C5.42648 21.7455 4.97852 22.5318 4.97852 23.9815Z" fill="white"/>
<path d="M9.14159 21.8438H10.2483V22.4089C10.4855 21.9912 10.8017 21.7209 11.276 21.7209C11.3551 21.7209 11.4078 21.7209 11.4869 21.7209V22.7529C11.4869 22.7529 11.2497 22.7529 11.1179 22.7529C10.7227 22.7529 10.2747 22.9495 10.2747 23.5146V26.0455H9.11523V21.8192L9.14159 21.8438Z" fill="white"/>
<path d="M12.8851 23.49V23.318C12.8851 22.9249 13.0168 22.4826 13.4648 22.4826C13.9128 22.4826 14.0182 22.8512 14.0445 23.49H12.8587H12.8851ZM15.1513 24.1289V23.8832C15.1513 22.5809 14.8614 21.7455 13.5175 21.7455C11.9628 21.7455 11.752 22.802 11.752 23.9323C11.752 24.9889 11.831 26.1929 13.4912 26.1929C14.5716 26.1929 15.0722 25.6523 15.1249 24.6695H14.0972C14.0182 25.1854 13.8601 25.4557 13.4912 25.4557C13.0695 25.4557 12.9114 24.9643 12.9114 24.4729V24.1289H15.1776H15.1513Z" fill="white"/>
<path d="M17.8385 24.8169C17.8385 25.2837 17.4432 25.4803 17.127 25.4803C16.8108 25.4803 16.7054 25.21 16.7054 24.8906C16.7054 24.522 16.8898 24.3009 17.3642 24.2026C17.4959 24.178 17.7067 24.1043 17.8648 23.9815V24.8169H17.8385ZM16.7581 23.146V23.0232C16.7581 22.7038 16.9425 22.4826 17.2851 22.4826C17.6804 22.4826 17.8122 22.6792 17.8122 22.9986C17.8122 23.2935 17.7067 23.4163 17.3642 23.49L16.7054 23.662C15.9148 23.8586 15.5723 24.178 15.5723 24.9889C15.5723 25.554 15.8621 26.1929 16.6527 26.1929C17.2061 26.1929 17.5223 26.07 17.7858 25.6523C17.8121 25.7997 17.8648 25.9472 17.9175 26.0946H19.0243C18.9189 25.8489 18.8925 25.6769 18.8925 25.2837V23.0478C18.8925 22.2861 18.629 21.7455 17.2851 21.7455C16.4155 21.7455 15.704 22.0649 15.704 23.0478V23.146H16.7317H16.7581Z" fill="white"/>
<path d="M21.8438 26.0946V20.4678H23.0296V26.0946H21.8438Z" fill="white"/>
<path d="M23.8721 21.8438H24.9788V22.3352C25.216 21.9175 25.6376 21.7209 26.1119 21.7209C26.8234 21.7209 27.245 22.0895 27.245 22.9249V26.07H26.0856V23.1461C26.0856 22.7284 25.9275 22.5564 25.5849 22.5564C25.1896 22.5564 24.9788 22.7775 24.9788 23.2444V26.0455H23.8457V21.8192L23.8721 21.8438Z" fill="white"/>
<path d="M28.8793 24.694V24.8415C28.8793 25.21 29.0901 25.4557 29.4854 25.4557C29.8279 25.4557 30.0651 25.2837 30.0651 24.9397C30.0651 24.6695 29.8806 24.5466 29.6435 24.4729L28.8266 24.2026C28.1941 23.9815 27.8779 23.6129 27.8779 23.0232C27.8779 22.3352 28.3522 21.7455 29.5117 21.7455C30.5394 21.7455 31.0401 22.1878 31.0401 22.9495V23.1215H30.0124C30.0124 22.7038 29.8806 22.4826 29.5117 22.4826C29.2218 22.4826 28.9583 22.63 28.9583 22.9495C28.9583 23.146 29.0637 23.318 29.459 23.4409L30.1441 23.662C30.8556 23.8832 31.1455 24.2272 31.1455 24.866C31.1455 25.7506 30.4604 26.1929 29.4854 26.1929C28.1941 26.1929 27.8516 25.6523 27.8516 24.8415V24.694H28.8793Z" fill="white"/>
<path d="M31.9889 20.6398H33.1484V21.8438H33.8072V22.5809H33.1484V24.866C33.1484 25.1854 33.2274 25.3329 33.5436 25.3329C33.6227 25.3329 33.7281 25.3329 33.8072 25.3329V26.0946C33.57 26.0946 33.3328 26.1437 33.0693 26.1437C32.1734 26.1437 32.0153 25.8734 32.0153 25.038V22.6055H31.4355V21.8683H32.0153V20.6643L31.9889 20.6398Z" fill="white"/>
<path d="M34.2285 21.8437H35.388V26.07H34.2285V21.8437ZM34.2285 20.394H35.388V21.3277H34.2285V20.394Z" fill="white"/>
<path d="M36.442 20.6398H37.6015V21.8438H38.2603V22.5809H37.6015V24.866C37.6015 25.1854 37.6806 25.3329 37.9968 25.3329C38.0758 25.3329 38.1812 25.3329 38.2603 25.3329V26.0946C38.0231 26.0946 37.786 26.1437 37.5224 26.1437C36.6265 26.1437 36.4684 25.8734 36.4684 25.038V22.6055H35.8887V21.8683H36.4684V20.6643L36.442 20.6398Z" fill="white"/>
<path d="M40.9479 25.6031C40.7107 26.0208 40.2891 26.2174 39.8148 26.2174C39.1033 26.2174 38.6816 25.8488 38.6816 25.0134V21.8683H39.8411V24.7923C39.8411 25.21 39.9992 25.382 40.3418 25.382C40.737 25.382 40.9479 25.1608 40.9479 24.6694V21.8683H42.081V26.0945H40.9742V25.6031H40.9479Z" fill="white"/>
<path d="M43.0563 20.6398H44.1894V21.8438H44.8482V22.5809H44.1894V24.866C44.1894 25.1854 44.2684 25.3329 44.5847 25.3329C44.6637 25.3329 44.7691 25.3329 44.8482 25.3329V26.0946C44.611 26.0946 44.3738 26.1437 44.1103 26.1437C43.2144 26.1437 43.0563 25.8734 43.0563 25.038V22.6055H42.4766V21.8683H43.0563V20.6643V20.6398Z" fill="white"/>
<path d="M46.2454 23.49V23.318C46.2454 22.9249 46.3771 22.4826 46.8251 22.4826C47.2731 22.4826 47.3785 22.8512 47.4049 23.49H46.2454ZM48.5116 24.1289V23.8832C48.5116 22.5809 48.2218 21.7455 46.8778 21.7455C45.3231 21.7455 45.0859 22.802 45.0859 23.9323C45.0859 24.9889 45.165 26.1929 46.8251 26.1929C47.9055 26.1929 48.4062 25.6523 48.4589 24.6695H47.4312C47.3522 25.1854 47.2204 25.4557 46.8251 25.4557C46.4035 25.4557 46.2717 24.9643 46.2717 24.4729V24.1289H48.538H48.5116Z" fill="white"/>
<path d="M52.096 23.9815C52.096 23.1215 52.1487 22.4827 52.7021 22.4827C53.1764 22.4827 53.3082 22.925 53.3082 23.9815C53.3082 25.0381 53.1501 25.4804 52.7021 25.4804C52.1487 25.4804 52.096 24.8661 52.096 23.9815ZM50.9629 23.9815C50.9629 25.4558 51.3582 26.2421 52.7284 26.2175C54.046 26.2175 54.494 25.4312 54.494 23.9815C54.494 22.5318 54.0987 21.721 52.7284 21.7455C51.4109 21.7455 50.9629 22.5318 50.9629 23.9815Z" fill="white"/>
<path d="M55.3356 22.6054H54.7559V21.8683H55.3356V21.4015C55.3356 20.6398 55.7836 20.394 56.5214 20.394C56.7322 20.394 56.9167 20.394 57.1275 20.394V21.1557C57.1275 21.1557 56.9694 21.1557 56.9167 21.1557C56.6005 21.1557 56.4687 21.254 56.4687 21.4997V21.8683H57.1275V22.6054H56.4687V26.0946H55.3092V22.6054H55.3356Z" fill="white"/>
<path d="M60.554 24.3255V24.4975C60.554 25.0135 60.7121 25.3575 61.3445 25.3575C61.7134 25.3575 62.056 25.1363 62.056 24.6695C62.056 24.1535 61.7925 23.9815 61.0019 23.7112C59.9479 23.3672 59.4472 22.9495 59.4472 22.0158C59.4472 20.9101 60.1587 20.3695 61.2918 20.3695C62.3459 20.3695 63.1364 20.8118 63.1364 21.8683V22.0158H61.9769C61.9769 21.4752 61.7925 21.1804 61.3182 21.1804C60.7648 21.1804 60.633 21.4998 60.633 21.8438C60.633 22.1878 60.7384 22.4089 61.2391 22.6055L62.1614 22.974C63.0573 23.3426 63.2945 23.7849 63.2945 24.4729C63.2945 25.6523 62.5303 26.1929 61.2391 26.1929C59.9479 26.1929 59.3418 25.6032 59.3418 24.5466V24.3255H60.5276H60.554Z" fill="white"/>
<path d="M66.0093 23.3918C66.0093 22.9741 65.9303 22.5318 65.4823 22.5318C64.9289 22.5318 64.8235 22.9986 64.8235 23.9815C64.8235 25.0381 64.9289 25.4558 65.4296 25.4558C65.7985 25.4558 65.983 25.1609 65.983 24.4729H67.0898C67.0898 25.5786 66.5891 26.1929 65.3769 26.1929C64.2174 26.1929 63.6641 25.6769 63.6641 23.9569C63.6641 22.2369 64.4283 21.7209 65.4823 21.7209C66.5364 21.7209 67.0898 22.3598 67.0898 23.3672H65.983L66.0093 23.3918Z" fill="white"/>
<path d="M67.748 21.8437H68.9075V26.07H67.748V21.8437ZM67.748 20.394H68.9075V21.3277H67.748V20.394Z" fill="white"/>
<path d="M70.6995 23.49V23.318C70.6995 22.9249 70.8313 22.4826 71.2792 22.4826C71.7272 22.4826 71.8326 22.8512 71.859 23.49H70.6995ZM72.9657 24.1289V23.8832C72.9657 22.5809 72.6759 21.7455 71.3319 21.7455C69.7772 21.7455 69.5664 22.802 69.5664 23.9323C69.5664 24.9889 69.6454 26.1929 71.3056 26.1929C72.386 26.1929 72.8867 25.6523 72.913 24.6695H71.8853C71.8063 25.1854 71.6482 25.4557 71.2792 25.4557C70.8576 25.4557 70.7259 24.9643 70.7259 24.4729V24.1289H72.9921H72.9657Z" fill="white"/>
<path d="M73.5713 21.8438H74.678V22.3352C74.9152 21.9175 75.3368 21.7209 75.8111 21.7209C76.5226 21.7209 76.9443 22.0895 76.9443 22.9249V26.07H75.7848V23.1461C75.7848 22.7284 75.6267 22.5564 75.2841 22.5564C74.8889 22.5564 74.678 22.7775 74.678 23.2444V26.0455H73.5449V21.8192L73.5713 21.8438Z" fill="white"/>
<path d="M79.8687 23.3918C79.8687 22.9741 79.7897 22.5318 79.3417 22.5318C78.7883 22.5318 78.6829 22.9986 78.6829 23.9815C78.6829 25.0381 78.7883 25.4558 79.289 25.4558C79.6842 25.4558 79.8424 25.1609 79.8424 24.4729H80.9491C80.9491 25.5786 80.4484 26.1929 79.2363 26.1929C78.0768 26.1929 77.5234 25.6769 77.5234 23.9569C77.5234 22.2369 78.2876 21.7209 79.3417 21.7209C80.3957 21.7209 80.9491 22.3598 80.9491 23.3672H79.8424L79.8687 23.3918Z" fill="white"/>
<path d="M82.5569 23.49V23.318C82.5569 22.9249 82.6887 22.4826 83.1367 22.4826C83.5846 22.4826 83.69 22.8512 83.7164 23.49H82.5306H82.5569ZM84.8232 24.1289V23.8832C84.8232 22.5809 84.5333 21.7455 83.1894 21.7455C81.6346 21.7455 81.4238 22.802 81.4238 23.9323C81.4238 24.9889 81.4765 26.1929 83.163 26.1929C84.2434 26.1929 84.7441 25.6523 84.7704 24.6695H83.7427C83.6637 25.1854 83.5056 25.4557 83.1367 25.4557C82.715 25.4557 82.5833 24.9643 82.5833 24.4729V24.1289H84.8495H84.8232Z" fill="white"/>
<path d="M89.4879 24.8169C89.4879 25.2837 89.0926 25.4803 88.7764 25.4803C88.4602 25.4803 88.3548 25.21 88.3548 24.8906C88.3548 24.522 88.5393 24.3009 89.0136 24.2026C89.1453 24.178 89.3562 24.1043 89.5143 23.9815V24.8169H89.4879ZM88.4339 23.146V23.0232C88.4339 22.7038 88.6183 22.4826 88.9609 22.4826C89.3562 22.4826 89.4879 22.6792 89.4879 22.9986C89.4879 23.2935 89.3825 23.4163 89.0399 23.49L88.3812 23.662C87.5906 23.8586 87.248 24.178 87.248 24.9889C87.248 25.554 87.5379 26.1929 88.3284 26.1929C88.8818 26.1929 89.198 26.07 89.4616 25.6523C89.4879 25.7997 89.5406 25.9472 89.5933 26.0946H90.7001C90.5947 25.8489 90.5683 25.6769 90.5683 25.2837V23.0478C90.5683 22.2861 90.3048 21.7455 88.9345 21.7455C88.0649 21.7455 87.3535 22.0649 87.3535 23.0478V23.146H88.3812H88.4339Z" fill="white"/>
<path d="M91.4111 21.8438H92.5179V22.3352C92.755 21.9175 93.1767 21.7209 93.651 21.7209C94.3625 21.7209 94.7841 22.0895 94.7841 22.9249V26.07H93.6246V23.1461C93.6246 22.7284 93.4665 22.5564 93.1239 22.5564C92.7287 22.5564 92.5179 22.7775 92.5179 23.2444V26.0455H91.3848V21.8192L91.4111 21.8438Z" fill="white"/>
<path d="M96.6019 23.9814C96.6019 23.0477 96.7073 22.5809 97.208 22.5809C97.7086 22.5809 97.814 23.0477 97.814 23.9814C97.814 24.9152 97.7086 25.382 97.208 25.382C96.7073 25.382 96.6019 24.9152 96.6019 23.9814ZM97.8667 26.0946H98.9735V20.4678H97.814V22.2369C97.5769 21.8929 97.287 21.7455 96.839 21.7455C95.8904 21.7455 95.4688 22.4089 95.4688 23.9814C95.4688 25.554 95.8904 26.2174 96.839 26.2174C97.287 26.2174 97.6032 26.0454 97.8667 25.6523V26.0946Z" fill="white"/>
<path d="M105.219 20.4678V21.4015H103.928V26.0946H102.742V21.4015H101.451V20.4678H105.246H105.219Z" fill="white"/>
<path d="M106.063 23.49V23.318C106.063 22.9249 106.195 22.4826 106.643 22.4826C107.091 22.4826 107.196 22.8512 107.222 23.49H106.036H106.063ZM108.329 24.1289V23.8832C108.329 22.5809 108.039 21.7455 106.695 21.7455C105.14 21.7455 104.93 22.802 104.93 23.9323C104.93 24.9889 105.009 26.1929 106.669 26.1929C107.749 26.1929 108.25 25.6523 108.303 24.6695H107.275C107.196 25.1854 107.038 25.4557 106.669 25.4557C106.247 25.4557 106.115 24.9643 106.115 24.4729V24.1289H108.382H108.329Z" fill="white"/>
<path d="M111.095 23.3918C111.095 22.9741 111.016 22.5318 110.568 22.5318C110.015 22.5318 109.909 22.9986 109.909 23.9815C109.909 25.0381 110.015 25.4558 110.516 25.4558C110.911 25.4558 111.069 25.1609 111.069 24.4729H112.176C112.176 25.5786 111.675 26.1929 110.463 26.1929C109.303 26.1929 108.75 25.6769 108.75 23.9569C108.75 22.2369 109.514 21.7209 110.568 21.7209C111.622 21.7209 112.176 22.3598 112.176 23.3672H111.069L111.095 23.3918Z" fill="white"/>
<path d="M112.783 20.4678H113.943V22.2861C114.153 21.9175 114.549 21.7455 115.023 21.7455C115.735 21.7455 116.156 22.1141 116.156 22.9495V26.0946H114.997V23.1706C114.997 22.7529 114.839 22.5809 114.496 22.5809C114.101 22.5809 113.89 22.8021 113.89 23.2689V26.07H112.73V20.4432L112.783 20.4678Z" fill="white"/>
<path d="M116.945 21.8438H118.052V22.3352C118.289 21.9175 118.711 21.7209 119.185 21.7209C119.897 21.7209 120.318 22.0895 120.318 22.9249V26.07H119.159V23.1461C119.159 22.7284 119.001 22.5564 118.658 22.5564C118.263 22.5564 118.052 22.7775 118.052 23.2444V26.0455H116.893V21.8192L116.945 21.8438Z" fill="white"/>
<path d="M122.111 23.9815C122.111 23.1215 122.163 22.4827 122.717 22.4827C123.191 22.4827 123.323 22.925 123.323 23.9815C123.323 25.0381 123.165 25.4804 122.717 25.4804C122.163 25.4804 122.111 24.8661 122.111 23.9815ZM120.951 23.9815C120.951 25.4558 121.346 26.2421 122.717 26.2175C124.034 26.2175 124.482 25.4312 124.482 23.9815C124.482 22.5318 124.087 21.721 122.717 21.7455C121.399 21.7455 120.951 22.5318 120.951 23.9815Z" fill="white"/>
<path d="M125.141 20.4678H126.274V26.0946H125.141V20.4678Z" fill="white"/>
<path d="M128.093 23.9815C128.093 23.1215 128.146 22.4827 128.699 22.4827C129.173 22.4827 129.305 22.925 129.305 23.9815C129.305 25.0381 129.147 25.4804 128.699 25.4804C128.146 25.4804 128.093 24.8661 128.093 23.9815ZM126.934 23.9815C126.934 25.4558 127.329 26.2421 128.699 26.2175C130.017 26.2175 130.465 25.4312 130.465 23.9815C130.465 22.5318 130.069 21.721 128.699 21.7455C127.382 21.7455 126.934 22.5318 126.934 23.9815Z" fill="white"/>
<path d="M132.124 24.1043C132.124 22.9741 132.203 22.5809 132.73 22.5809C133.178 22.5809 133.336 22.9741 133.336 24.0061C133.336 24.7186 133.205 25.2101 132.704 25.2101C132.203 25.2101 132.124 24.6941 132.124 24.1043ZM133.336 21.8438V22.3107C133.126 21.8684 132.73 21.7209 132.414 21.7209C131.176 21.7209 131.018 22.8758 131.018 23.8832C131.018 25.4312 131.466 26.0209 132.388 26.0209C132.757 26.0209 133.099 25.8243 133.336 25.5049V26.07C133.336 26.5123 133.178 26.8317 132.704 26.8317C132.572 26.8317 132.441 26.7826 132.335 26.7089C132.23 26.6352 132.151 26.5369 132.151 26.3895H131.044C131.044 27.102 131.597 27.5197 132.572 27.5197C133.916 27.5197 134.443 26.9792 134.443 25.8489V21.8192H133.336V21.8438Z" fill="white"/>
<path d="M135.312 26.6597C135.312 26.6597 135.523 26.6597 135.602 26.6597C136.024 26.6597 136.182 26.4386 136.208 26.07L134.943 21.8438H136.129L136.788 24.7677L137.368 21.8438H138.527L137.447 25.7997C137.051 27.274 136.788 27.4705 135.734 27.4705H135.26V26.6597H135.312Z" fill="white"/>
<path d="M141.084 26.0946V20.4678H142.27V26.0946H141.084Z" fill="white"/>
<path d="M143.139 21.8438H144.245V22.3352C144.483 21.9175 144.904 21.7209 145.379 21.7209C146.09 21.7209 146.512 22.0895 146.512 22.9249V26.07H145.352V23.1461C145.352 22.7284 145.194 22.5564 144.851 22.5564C144.456 22.5564 144.245 22.7775 144.245 23.2444V26.0455H143.086V21.8192L143.139 21.8438Z" fill="white"/>
<path d="M147.541 22.6054H146.961V21.8683H147.541V21.4015C147.541 20.6398 147.989 20.394 148.726 20.394C148.937 20.394 149.148 20.394 149.333 20.394V21.1557C149.333 21.1557 149.174 21.1557 149.122 21.1557C148.806 21.1557 148.674 21.254 148.674 21.4997V21.8683H149.333V22.6054H148.674V26.0946H147.541V22.6054Z" fill="white"/>
<path d="M150.754 23.9815C150.754 23.1215 150.807 22.4827 151.36 22.4827C151.835 22.4827 151.966 22.925 151.966 23.9815C151.966 25.0381 151.808 25.4804 151.36 25.4804C150.807 25.4804 150.754 24.8661 150.754 23.9815ZM149.621 23.9815C149.621 25.4558 150.016 26.2421 151.387 26.2175C152.704 26.2175 153.152 25.4312 153.152 23.9815C153.152 22.5318 152.783 21.721 151.387 21.7455C150.069 21.7455 149.621 22.5318 149.621 23.9815Z" fill="white"/>
<path d="M153.759 21.8438H154.866V22.4089C155.103 21.9912 155.419 21.7209 155.893 21.7209C155.946 21.7209 156.025 21.7209 156.104 21.7209V22.7529C156.104 22.7529 155.867 22.7529 155.735 22.7529C155.34 22.7529 154.892 22.9495 154.892 23.5146V26.0455H153.732V21.8192L153.759 21.8438Z" fill="white"/>
<path d="M156.525 21.8438H157.632V22.286C157.922 21.8929 158.291 21.7455 158.765 21.7455C159.292 21.7455 159.661 21.9912 159.793 22.4335C159.977 21.9912 160.373 21.7455 160.926 21.7455C161.69 21.7455 162.033 22.1878 162.033 22.9986V26.07H160.873V23.1215C160.873 22.7775 160.742 22.5809 160.425 22.5809C160.056 22.5809 159.819 22.8266 159.819 23.2935V26.07H158.686V23.1215C158.686 22.7775 158.554 22.5809 158.238 22.5809C157.869 22.5809 157.632 22.8266 157.632 23.2935V26.07H156.473V21.8438H156.525Z" fill="white"/>
<path d="M164.906 24.8169C164.906 25.2837 164.511 25.4803 164.194 25.4803C163.878 25.4803 163.773 25.21 163.773 24.8906C163.773 24.522 163.957 24.3009 164.432 24.2026C164.563 24.178 164.774 24.1043 164.932 23.9815V24.8169H164.906ZM163.852 23.146V23.0232C163.852 22.7038 164.036 22.4826 164.379 22.4826C164.748 22.4826 164.906 22.6792 164.906 22.9986C164.906 23.2935 164.8 23.4163 164.458 23.49L163.799 23.662C163.009 23.8586 162.666 24.178 162.666 24.9889C162.666 25.554 162.956 26.1929 163.746 26.1929C164.3 26.1929 164.616 26.07 164.88 25.6523C164.906 25.7997 164.959 25.9472 165.011 26.0946H166.118C166.013 25.8489 165.986 25.6769 165.986 25.2837V23.0478C165.986 22.2861 165.723 21.7455 164.379 21.7455C163.509 21.7455 162.798 22.0649 162.798 23.0478V23.146H163.825H163.852Z" fill="white"/>
<path d="M167.066 20.6398H168.199V21.8438H168.858V22.5809H168.199V24.866C168.199 25.1854 168.278 25.3329 168.594 25.3329C168.674 25.3329 168.779 25.3329 168.858 25.3329V26.0946C168.621 26.0946 168.384 26.1437 168.12 26.1437C167.224 26.1437 167.066 25.8734 167.066 25.038V22.6055H166.486V21.8683H167.066V20.6643V20.6398Z" fill="white"/>
<path d="M169.307 21.8437H170.466V26.07H169.307V21.8437ZM169.307 20.394H170.466V21.3277H169.307V20.394Z" fill="white"/>
<path d="M172.258 23.9815C172.258 23.1215 172.311 22.4827 172.864 22.4827C173.339 22.4827 173.47 22.925 173.47 23.9815C173.47 25.0381 173.312 25.4804 172.864 25.4804C172.284 25.4804 172.258 24.8661 172.258 23.9815ZM171.125 23.9815C171.125 25.4558 171.52 26.2421 172.891 26.2175C174.208 26.2175 174.656 25.4312 174.656 23.9815C174.656 22.5318 174.287 21.721 172.891 21.7455C171.573 21.7455 171.125 22.5318 171.125 23.9815Z" fill="white"/>
<path d="M175.262 21.8438H176.368V22.3352C176.606 21.9175 177.027 21.7209 177.502 21.7209C178.213 21.7209 178.635 22.0895 178.635 22.9249V26.07H177.475V23.1461C177.475 22.7284 177.317 22.5564 176.975 22.5564C176.579 22.5564 176.368 22.7775 176.368 23.2444V26.0455H175.209V21.8192L175.262 21.8438Z" fill="white"/>
<path d="M94.522 4.98789C95.3916 5.38103 95.9977 5.5776 96.4193 5.67588C96.8146 5.77417 96.9991 5.79874 97.0254 5.79874L96.0504 7.17472C96.0504 7.17472 95.7342 7.10101 95.1808 7.00272C94.6275 6.90444 94.0477 6.75701 93.4416 6.53587C92.0187 6.01988 91.07 5.47931 90.5166 5.0616C89.9632 4.64389 89.6997 4.34904 89.6997 4.32447C89.6997 4.34904 89.4362 4.61932 88.9092 5.03703C88.3558 5.50388 87.4072 5.99531 85.9578 6.53587C85.3518 6.75701 84.772 6.92901 84.245 7.00272C83.718 7.10101 83.4281 7.15015 83.4018 7.17472L82.4004 5.79874C82.4004 5.79874 82.743 5.74959 83.2963 5.60217C83.8761 5.45474 84.3768 5.2336 84.8247 5.01246C85.7734 4.57018 86.2214 4.2999 86.8801 3.71019C87.5653 3.09591 87.9078 2.08849 87.9078 1.47421V0.810791H91.4916V1.49878C91.4916 2.1622 91.8869 3.21877 92.6511 3.83304C93.4153 4.44732 93.7842 4.66846 94.522 5.01246V4.98789Z" fill="white"/>
<path d="M101.452 5.25822C101.03 5.92164 100.53 6.41307 99.8182 6.92906C99.4757 7.19934 99.0541 7.39591 98.6588 7.61705C98.2372 7.83819 98.0264 7.96105 98 7.98562L98.9486 9.50903C98.9486 9.50903 99.7128 9.23875 100.846 8.62447C101.689 8.18219 102.348 7.78905 102.954 7.27306C103.534 6.75706 103.797 6.41306 103.824 6.38849C103.824 6.41306 104.087 6.75706 104.641 7.22391C105.22 7.71534 105.853 8.13305 106.854 8.67361C107.803 9.18961 108.699 9.50903 108.699 9.50903L109.621 7.98562C109.621 7.98562 109.357 7.86276 108.909 7.64162C108.462 7.42048 107.855 7.05192 107.17 6.46221C106.617 5.99536 106.195 5.5285 105.958 4.9388C105.642 4.2508 105.563 3.41538 105.563 2.70282H108.672V1.20398H98.9486V2.70282H102.058C102.058 3.4891 101.953 4.4228 101.426 5.25822H101.452Z" fill="white"/>
<path d="M9.01217 3.02225C9.46015 3.31711 9.85542 3.73482 10.1453 4.27538C10.4615 4.81595 10.5933 5.40566 10.5933 5.99536C10.5933 7.12564 10.0926 8.05934 9.06489 8.84562C8.03718 9.65647 6.77231 10.0496 5.29664 10.0496C3.82096 10.0496 2.52974 9.65647 1.52839 8.84562C0.527033 8.05934 0 7.10107 0 5.99536C0 5.40566 0.158104 4.84052 0.447969 4.29995C0.737834 3.78396 1.10676 3.34168 1.60744 3.02225H0.026357V1.49884H3.82094V0H6.90407V1.49884H10.6196V3.02225H9.06489H9.01217ZM5.29664 3.02225C4.58515 3.02225 4.0054 3.29254 3.53108 3.80853C3.10945 4.32453 2.89865 4.9388 2.89865 5.65137C2.89865 6.36393 3.13582 7.00278 3.58379 7.51878C4.05812 8.03477 4.63785 8.30506 5.29664 8.30506C5.95542 8.30506 6.53513 8.05934 7.00946 7.51878C7.48378 7.00278 7.72096 6.3885 7.72096 5.65137C7.72096 4.91423 7.51015 4.32453 7.06217 3.80853C6.6142 3.26797 6.03447 3.02225 5.29664 3.02225ZM11.7264 0.786278H14.7568V4.49652H17.023V6.21651H14.7568V12.1627H11.7264V0.786278ZM2.71419 10.9342H5.69189V15.2341H14.8358V16.8067H2.71419V10.9342Z" fill="white"/>
<path d="M30.8303 1.05652V4.20163C30.8303 6.24103 29.9871 7.02731 29.9871 7.02731H31.9371V8.59987H25.7972V11.4256H30.8303V17.2243H27.7999V12.9981H17.5229V11.4256H22.7668V8.59987H16.5742V7.02731H26.9567C26.9567 7.02731 27.3783 5.89704 27.3783 4.91419V2.72736H17.5229V1.05652H30.804H30.8303Z" fill="white"/>
<path d="M43.032 6.14273C43.032 9.63184 42.3205 10.4181 42.3205 10.4181H39.3691C39.3691 10.4181 40.0806 8.84556 40.0806 6.19187V2.80106H32.9657V1.2285H43.032V6.14273ZM37.8144 12.3592H44.2178V0.810791H47.2482V8.35414H49.4881V10.0741H47.2482V17.2735H44.2178V13.9318H32.834V12.3592H34.9948V6.43759H37.8144V12.3592Z" fill="white"/>
<path d="M58.1313 3.02225C58.5793 3.31711 58.9746 3.73482 59.2644 4.27538C59.5806 4.81595 59.7124 5.40566 59.7124 5.99536C59.7124 7.12564 59.2117 8.05934 58.184 8.84562C57.1563 9.65647 55.8915 10.0496 54.4158 10.0496C52.9401 10.0496 51.6489 9.65647 50.6475 8.84562C49.6462 8.05934 49.1191 7.10107 49.1191 5.99536C49.1191 5.40566 49.2772 4.84052 49.5671 4.29995C49.857 3.78396 50.2259 3.34168 50.7002 3.02225H49.1191V1.49884H52.9137V0H55.9969V1.49884H59.7124V3.02225H58.1577H58.1313ZM54.4421 3.02225C53.7306 3.02225 53.1509 3.29254 52.6766 3.80853C52.255 4.32453 52.0441 4.9388 52.0441 5.65137C52.0441 6.36393 52.2813 7.00278 52.7293 7.51878C53.2036 8.03477 53.7833 8.30505 54.4421 8.30505C55.1009 8.30505 55.6806 8.05934 56.155 7.51878C56.6293 7.00278 56.8665 6.3885 56.8665 5.65137C56.8665 4.91423 56.6556 4.32453 56.2077 3.80853C55.7597 3.26797 55.18 3.02225 54.4421 3.02225ZM60.8455 0.786278H63.8759V4.32453H66.1421V6.26565H63.8759V10.0005H60.8455V0.786278ZM63.8759 17.2244H60.8455V12.433H51.5171V10.8605H63.8759V17.2244Z" fill="white"/>
<path d="M73.1255 2.80106H66.4322V1.2285H76.393C76.393 1.2285 76.4194 1.86735 76.1559 4.10333C75.5762 9.09127 71.439 12.3592 66.9592 13.9318L65.7734 12.4821C65.7734 12.4821 73.1255 9.85298 73.1255 3.66105V2.80106ZM77.8424 0.810791H80.8728V17.2489H77.8424V0.810791Z" fill="white"/>
<path d="M81.9785 9.28789V7.71533H97.3414V9.28789H91.2015V10.4182H96.2346V14.4478H86.063V15.3324H96.3664V16.9049H83.0853V12.8753H93.2042V11.9907H83.0853V10.4182H88.1711V9.28789H81.9785Z" fill="white"/>
<path d="M115.603 1.20398H118.633V3.61195H125.722V1.20398H128.752V9.63189H123.719V12.7033H129.859V14.2758H114.496V12.7033H120.689V9.63189H115.603V1.20398ZM125.722 5.18451H118.633V8.05933H125.722V5.18451Z" fill="white"/>
<path d="M143.115 7.69081H140.059V7.42052C139.584 8.0348 138.952 8.50165 138.214 8.84565C137.423 9.21422 136.58 9.41079 135.684 9.41079C134.209 9.41079 132.97 8.96851 131.916 8.10852C130.888 7.22395 130.361 6.19196 130.361 4.96341C130.361 3.73485 130.888 2.67829 131.916 1.79373C132.944 0.933735 134.209 0.491455 135.684 0.491455C136.58 0.491455 137.424 0.663453 138.188 1.00745C138.952 1.35145 139.584 1.84287 140.085 2.43258V2.16229H143.142V0.786309H146.172V12.1628H143.142V7.66624L143.115 7.69081ZM133.945 3.096C133.497 3.61199 133.26 4.25084 133.26 4.98798C133.26 5.72511 133.497 6.33939 133.945 6.85539C134.419 7.39595 134.973 7.64166 135.658 7.64166C136.343 7.64166 136.87 7.37138 137.344 6.85539C137.819 6.33939 138.056 5.70054 138.056 4.98798C138.056 4.27541 137.819 3.61199 137.344 3.096C136.87 2.58 136.317 2.33429 135.658 2.33429C134.999 2.33429 134.419 2.60458 133.945 3.096ZM140.928 4.3737C140.955 4.57027 140.981 4.76684 140.981 4.96341C140.981 5.1354 140.981 5.3074 140.928 5.4794C140.928 5.6514 140.876 5.84797 140.823 5.9954H143.115V3.83313H140.796C140.849 4.0297 140.876 4.2017 140.928 4.3737ZM133.576 11.0079H136.554V15.2342H146.199V16.8067H133.603V11.0079H133.576Z" fill="white"/>
<path d="M161.27 1.20402V5.38111C161.27 7.54338 160.427 8.47708 160.427 8.47708H162.377V10.0742H156.21V17.2244H153.18V10.0742H147.014V8.47708H157.422C157.422 8.47708 158.292 7.10109 158.292 5.38111C158.292 4.2017 158.266 2.752 158.266 2.752H147.989V1.17944H161.27V1.20402Z" fill="white"/>
<path d="M108.305 5.65131H110.597V10.0004H113.628V0.810791H110.597V4.07876H108.305V5.65131Z" fill="white"/>
<path d="M112.125 10.8849C110.966 10.0741 109.385 9.65637 107.382 9.65637C105.379 9.65637 103.772 10.0741 102.612 10.8849C101.585 11.6221 101.084 12.5558 101.084 13.6615C101.084 14.7672 101.585 15.6517 102.612 16.3643C103.772 17.1997 105.379 17.6174 107.382 17.6174C109.385 17.6174 110.966 17.1997 112.125 16.3643C113.179 15.6272 113.706 14.718 113.706 13.6615C113.706 12.6049 113.179 11.6466 112.125 10.8849ZM109.727 15.3077C109.121 15.8237 108.357 16.0694 107.382 16.0694C106.407 16.0694 105.616 15.8237 105.01 15.3077C104.483 14.8409 104.22 14.3003 104.22 13.6615C104.22 13.0226 104.483 12.4329 105.01 11.9661C105.616 11.4501 106.407 11.2044 107.382 11.2044C108.357 11.2044 109.148 11.4501 109.727 11.9661C110.281 12.4329 110.544 12.9981 110.544 13.6615C110.544 14.3249 110.281 14.8409 109.727 15.3077Z" fill="white"/>
<path d="M175.632 13.8089H178.662V0.810791H175.632V10.3198H172.707V11.8924H175.632V13.8089Z" fill="white"/>
<path d="M168.86 15.2342V12.5559H165.883V16.8067H178.927V15.2342H168.86Z" fill="white"/>
<path d="M164.617 6.31479C165.619 6.97821 166.963 7.3222 168.675 7.3222C170.23 7.3222 171.495 7.02735 172.496 6.43764C173.419 5.92165 173.946 5.20908 174.13 4.37366C174.13 4.37366 174.288 3.90681 174.078 3.29253C173.919 2.75197 173.603 2.3834 173.603 2.3834C173.155 1.81826 172.549 1.37598 171.759 1.03199C170.889 0.687989 169.861 0.515991 168.675 0.515991C166.989 0.515991 165.619 0.859988 164.617 1.54798C163.695 2.18683 163.221 2.99768 163.221 3.98053C163.221 4.96337 163.695 5.70051 164.617 6.33936V6.31479ZM166.778 2.60454C167.279 2.23597 167.911 2.0394 168.675 2.0394C169.44 2.0394 170.046 2.23597 170.546 2.60454C171.047 2.97311 171.284 3.41539 171.284 3.95595C171.284 4.44738 171.047 4.86509 170.546 5.23365C170.019 5.62679 169.413 5.82336 168.675 5.82336C167.938 5.82336 167.305 5.62679 166.778 5.23365C166.304 4.86509 166.067 4.44738 166.067 3.95595C166.067 3.43996 166.304 2.97311 166.778 2.60454Z" fill="white"/>
<path d="M167.253 11.8925H170.178V9.38624H174.631V7.83826H163.537V9.38624H167.253V11.8925Z" fill="white"/>
</svg>
