<svg width="89" height="31" viewBox="0 0 89 31" fill="none" xmlns="http://www.w3.org/2000/svg">
<path d="M10.9377 5.05597L5.42228 10.1988C2.42764 12.9911 2.42764 17.5184 5.42228 20.3107L10.9377 25.4536C13.9324 28.2459 18.7876 28.2459 21.7823 25.4535L27.2977 20.3107C30.2923 17.5184 30.2923 12.9911 27.2977 10.1988L21.7823 5.05597C18.7876 2.26364 13.9323 2.26364 10.9377 5.05597Z" fill="#E60012"/>
<path d="M13.0942 22.8083C12.6463 22.8083 12.3037 22.4889 12.2773 22.0712C12.2773 21.8746 12.3564 21.6781 12.4882 21.5306C12.6463 21.3832 12.8307 21.2849 13.0416 21.2849C13.4895 21.2849 13.8584 21.6043 13.8848 22.022C13.8848 22.4398 13.5422 22.7838 13.0942 22.8083C13.0942 22.8083 13.0942 22.8083 13.0679 22.8083H13.0942Z" fill="white"/>
<path d="M16.0721 8.77821C15.6241 8.77821 15.2552 8.90106 14.9654 9.17135C14.3329 9.76105 14.0167 10.9405 14.043 12.5376C14.0694 14.5033 14.5701 18.361 16.2302 20.3267C16.4937 20.6461 16.7836 20.8918 17.0998 21.0884C17.3897 21.2604 17.7059 21.4324 18.2329 21.4324C18.3647 21.4324 18.5228 21.4324 18.6809 21.3832C19.6296 21.1621 20.8154 20.1792 21.7113 18.877C21.8431 18.6804 22.0802 18.5575 22.3438 18.5575C22.4755 18.5575 22.6073 18.5821 22.739 18.6558C22.8971 18.7541 23.0289 18.9015 23.0553 19.0735C23.108 19.2455 23.0552 19.4421 22.9498 19.5895C21.8431 21.2358 20.3674 22.4152 18.9971 22.7101C18.9971 22.7101 18.9971 22.7101 18.9708 22.7101C18.7336 22.7592 18.4701 22.7838 18.2329 22.7838C17.3634 22.7838 16.7309 22.4643 16.3093 22.1941C15.8876 21.9238 15.466 21.5798 15.0971 21.1375C12.7782 18.3364 12.6201 13.1273 12.5938 12.5376C12.5938 11.137 12.7782 9.26963 13.9377 8.1885C14.5174 7.6725 15.2289 7.40222 16.0458 7.40222H16.1775C17.0208 7.40222 17.7323 7.6725 18.312 8.1885C19.4715 9.26963 19.6823 11.1616 19.6559 12.5376C19.6296 13.9873 19.3397 16.7884 17.7323 19.3192C17.6005 19.5158 17.3633 19.6632 17.0998 19.6632C16.9681 19.6632 16.8363 19.6387 16.7309 19.5649C16.3883 19.3684 16.2829 18.9507 16.4674 18.6312C17.6005 16.8621 18.1539 14.921 18.1802 12.5376C18.2066 10.9405 17.8904 9.76105 17.2579 9.17135C16.9681 8.90106 16.5992 8.77821 16.1775 8.77821H16.0458H16.0721Z" fill="white"/>
<path d="M51.146 7.03357C47.5358 7.03357 45.375 9.12212 45.375 11.6775C45.375 14.2329 47.5358 16.3215 51.146 16.3215C54.7561 16.3215 56.9169 14.2329 56.9169 11.6775C56.9169 9.12212 54.7561 7.03357 51.146 7.03357ZM51.146 15.3141C49.4068 15.3141 48.1156 13.6678 48.1156 11.6529C48.1156 9.63811 49.4331 8.01642 51.146 8.01642C52.8588 8.01642 54.2027 9.63811 54.2027 11.6529C54.2027 13.6678 52.8852 15.3141 51.146 15.3141Z" fill="#E60012"/>
<path d="M57.418 8.38498H61.2126V15.9283H64.0585V8.38498H67.2734V7.37756H57.418V8.38498Z" fill="#E60012"/>
<path d="M68.3262 8.38498H71.5147V15.9283H74.387V8.38498H78.1816V7.37756H68.3262V8.38498Z" fill="#E60012"/>
<path d="M39.6565 14.3804V7.35303H36.916V14.8964C36.916 15.4615 37.4167 15.9038 38.0228 15.9038H45.0586V14.8718H40.2363C39.9464 14.8718 39.6829 14.6507 39.6829 14.3558L39.6565 14.3804Z" fill="#E60012"/>
<path d="M79.7363 8.38502V14.9209C79.7363 15.4861 80.237 15.9284 80.8431 15.9284H88.3269V14.9209H83.0566C82.7404 14.9209 82.5032 14.6998 82.5032 14.405V11.8741H88.2478V10.8667H82.5032V8.87644C82.5032 8.60616 82.7404 8.36044 83.0566 8.36044H88.3269V7.35303H80.8431C80.237 7.35303 79.7363 7.79531 79.7363 8.36044V8.38502Z" fill="#E60012"/>
<path d="M36.8887 19.1226H38.2589V23.2997H36.8887V19.1226Z" fill="#E60012"/>
<path d="M45.9794 22.9311C45.9794 22.9311 45.953 23.1031 45.8739 23.1768C45.7949 23.2505 45.6895 23.2751 45.5577 23.2751H44.8462C44.6881 23.2751 44.5564 23.2505 44.4773 23.1768C44.3983 23.1031 44.3192 23.0294 44.2402 22.9066L42.2375 19.9826V23.2751H40.8672V19.442C40.8672 19.442 40.8935 19.27 40.9726 19.1963C41.0516 19.1226 41.1571 19.098 41.2888 19.098H42.0793C42.2374 19.098 42.3429 19.1226 42.4483 19.1963C42.5537 19.27 42.6327 19.3437 42.6854 19.442L44.6354 22.366V19.098H46.0057V22.9311H45.9794Z" fill="#E60012"/>
<path d="M53.7801 22.9311C53.7801 22.9311 53.7538 23.1031 53.6748 23.1768C53.5957 23.2505 53.4903 23.2751 53.3586 23.2751H52.6471C52.4889 23.2751 52.3572 23.2505 52.2781 23.1768C52.1991 23.1031 52.12 23.0294 52.041 22.9066L50.0383 19.9826V23.2751H48.668V19.442C48.668 19.442 48.6943 19.27 48.7734 19.1963C48.8525 19.1226 48.9578 19.098 49.0896 19.098H49.8802C50.0383 19.098 50.1437 19.1226 50.2491 19.1963C50.3545 19.27 50.4335 19.3437 50.4862 19.442L52.4362 22.366V19.098H53.8065V22.9311H53.7801Z" fill="#E60012"/>
<path d="M61.8697 21.2111C61.8697 21.506 61.817 21.8008 61.6853 22.0711C61.5535 22.3414 61.3954 22.5871 61.1582 22.7837C60.9211 22.9802 60.6312 23.1522 60.2886 23.2751C59.9461 23.3979 59.5508 23.4717 59.1028 23.4717C58.6549 23.4717 58.2596 23.3979 57.917 23.2751C57.5745 23.1522 57.2846 22.9802 57.0474 22.7837C56.8103 22.5871 56.6522 22.3414 56.5204 22.0711C56.415 21.8008 56.3359 21.506 56.3359 21.2111C56.3359 20.9163 56.3886 20.6214 56.494 20.3511C56.5994 20.0808 56.7839 19.8351 56.9947 19.6386C57.2319 19.442 57.5218 19.27 57.8643 19.1471C58.2069 19.0243 58.6022 18.9506 59.0765 18.9506C59.5508 18.9506 59.9461 19.0243 60.2886 19.1471C60.6312 19.27 60.9211 19.442 61.1582 19.6386C61.3954 19.8351 61.5535 20.0808 61.6589 20.3511C61.7643 20.6214 61.817 20.9163 61.817 21.2111H61.8697ZM59.1292 19.3928C58.9184 19.3928 58.7339 19.442 58.5494 19.5403C58.365 19.6386 58.2332 19.7614 58.1015 19.9334C57.9697 20.1054 57.8643 20.2774 57.8116 20.4985C57.7326 20.7197 57.7062 20.9408 57.7062 21.1865C57.7062 21.4322 57.7326 21.678 57.8116 21.8745C57.8907 22.0957 57.9697 22.2922 58.1015 22.4397C58.2332 22.6117 58.3913 22.7345 58.5494 22.8328C58.7339 22.9311 58.9184 22.9802 59.1292 22.9802C59.34 22.9802 59.5245 22.9311 59.7089 22.8328C59.8934 22.7345 60.0251 22.6117 60.1569 22.4397C60.2886 22.2677 60.3677 22.0957 60.4467 21.8745C60.5258 21.6534 60.5522 21.4322 60.5522 21.1865C60.5522 20.9408 60.5258 20.6951 60.4467 20.4985C60.3677 20.2774 60.2886 20.0808 60.1569 19.9334C60.0251 19.7614 59.8934 19.6386 59.7089 19.5403C59.5245 19.442 59.34 19.3928 59.1292 19.3928Z" fill="#E60012"/>
<path d="M67.3513 22.9557C67.3513 22.9557 67.2195 23.1277 67.1405 23.2014C67.035 23.2751 66.9296 23.2997 66.7979 23.2997H66.1655C66.1655 23.2997 65.9283 23.2997 65.8492 23.226C65.7702 23.1768 65.7175 23.1031 65.6384 22.9803L63.6094 19.098H65.1114L66.7188 22.4397L68.2999 19.098H69.2222L67.3249 22.9311L67.3513 22.9557Z" fill="#E60012"/>
<path d="M74.5706 23.2997L74.1226 22.4642H71.5402L71.0659 23.2997H70.1699L72.4361 19.3928C72.4361 19.3928 72.5416 19.2454 72.6206 19.1963C72.6997 19.1471 72.8051 19.1226 72.9105 19.1226H73.3585C73.3585 19.1226 73.5693 19.1471 73.6483 19.1963C73.7274 19.2454 73.8064 19.3191 73.8591 19.3928L75.9672 23.2997H74.5443H74.5706ZM71.8037 21.9728H73.8328L73.0686 20.5477C73.0686 20.5477 72.9895 20.4494 72.9632 20.4003C72.9368 20.3511 72.8841 20.3265 72.8314 20.3265C72.7787 20.3265 72.726 20.3265 72.6733 20.4003C72.6206 20.474 72.5943 20.4985 72.5679 20.5477L71.7774 21.9728H71.8037Z" fill="#E60012"/>
<path d="M80.1046 19.614V23.2997H78.7343V19.614H76.9688V19.1226H81.8438V19.614H80.0782H80.1046Z" fill="#E60012"/>
<path d="M88.2475 20.8179V21.3094H85.4806V22.4888C85.4806 22.4888 85.4806 22.5625 85.4806 22.6116C85.4806 22.6608 85.4807 22.6853 85.507 22.7099C85.507 22.7345 85.5597 22.7591 85.6124 22.7836C85.6651 22.7836 85.7178 22.7836 85.7969 22.7836H88.3002V23.2751H84.7955C84.7955 23.2751 84.611 23.2751 84.532 23.2751C84.4529 23.2751 84.3739 23.2259 84.3212 23.2013C84.2685 23.1522 84.2158 23.1031 84.1894 23.0293C84.1631 22.9556 84.1367 22.8328 84.1367 22.7099V19.7368C84.1367 19.6139 84.1367 19.4911 84.1894 19.4174C84.2158 19.3437 84.2685 19.2699 84.3212 19.2208C84.3739 19.1717 84.4529 19.1471 84.532 19.1471C84.611 19.1471 84.6901 19.1471 84.7692 19.1471H88.3002V19.6385H85.8495C85.8495 19.6385 85.6388 19.6385 85.5861 19.6877C85.5334 19.7122 85.507 19.8105 85.507 19.9334V20.8425H88.2739L88.2475 20.8179Z" fill="#E60012"/>
</svg>
