<svg width="85" height="35" viewBox="0 0 85 35" fill="none" xmlns="http://www.w3.org/2000/svg">
<g clip-path="url(#clip0_1186_4563)">
<path d="M37.6657 7.73472L32.3517 4.06069C32.3517 4.06069 27.9725 1.01511 27.9725 1.03928C25.8813 -0.435167 22.9783 -8.3807e-05 21.4284 0.314143L4.20695 4.1332C1.89436 4.6408 0 6.96124 0 9.30586V25.839C0 28.1836 1.89436 30.4799 4.20695 31.0117L21.4038 34.8307C23.7164 35.3383 27.1852 34.6615 29.1288 33.3321L37.6411 27.4101C39.8799 25.8632 40.2735 24.6304 40.2735 22.4067V12.7623C40.2735 10.4661 39.8799 9.30586 37.6411 7.7589L37.6657 7.73472Z" fill="#CF1474"/>
<path d="M29.6464 6.84048V7.37225L25.1934 5.12432C24.726 4.88261 23.9141 4.76175 23.3729 4.83427L18.3541 5.63192C17.7636 5.7286 17.2962 6.28454 17.2962 6.86465V20.6906C17.2962 23.5187 15.328 24.2196 13.1384 24.0021L10.0386 23.712C7.6768 23.4945 6.79112 21.7783 6.79112 19.7721V8.58081C6.79112 8.0007 6.32368 7.58979 5.73324 7.68648L2.97781 8.12156C2.38736 8.21824 1.91992 8.77418 1.91992 9.35429V20.3281C1.91992 24.9448 4.92137 27.4586 10.2846 28.2562L14.1717 28.8363C19.8548 29.6823 24.357 27.0235 24.357 20.6665V11.288L29.671 12.6174V18.1043C29.671 18.6844 30.163 19.1195 30.7535 19.0711L32.6725 18.9261C33.2629 18.8778 33.7549 18.3702 33.7549 17.7659V13.6326L36.5596 14.3336C36.904 14.4303 37.1746 14.2127 37.1746 13.8502V11.7714C37.1746 11.4089 36.9286 10.9979 36.6088 10.8529L33.7549 9.42681V8.72584C33.7549 5.8978 32.451 4.68924 31.6146 3.98827C31.5408 3.93993 31.6146 3.86742 31.6638 3.91576L27.2846 0.870178C28.6869 1.83703 29.6956 3.6257 29.6956 6.84048H29.6464Z" fill="white"/>
<path d="M72.7237 19.482C72.7237 20.8356 72.4284 21.73 71.0015 21.73C69.8698 21.73 69.3286 21.0532 69.3286 19.6029V13.8501H66.6962V19.7963C66.6962 22.3826 68.2215 23.8087 71.0015 23.8087C73.7816 23.8087 75.3069 22.4068 75.3069 19.7721V13.8501H72.6745V19.482H72.7237ZM82.22 13.8743V11.1429H79.9813V13.8743H77.2012V16.0739H79.9813V18.8052H82.22V16.0739H85.0001V13.8743H82.22ZM57.4212 19.8204H59.414C59.414 19.8204 59.414 21.9717 57.372 21.9717C56.8554 21.9717 56.3879 21.7783 56.0189 21.4399C55.453 20.884 55.1578 19.9655 55.1578 18.7569C55.1578 16.7749 55.9697 15.5663 57.3228 15.5663C58.1593 15.5663 58.7989 16.0739 58.9711 16.8474H61.7512C61.6036 15.7355 61.2837 15.1312 60.5211 14.5511C59.7092 13.9226 58.6513 13.6084 57.372 13.6084C55.8713 13.6084 54.6166 14.0677 53.7555 14.9137C52.8452 15.808 52.3778 17.1132 52.3778 18.7086C52.3778 20.4005 52.8944 21.8508 53.8047 22.7452C54.5182 23.4461 55.5022 23.8329 56.5847 23.8329C59.0203 23.8329 59.5616 22.4068 59.5616 22.4068V23.567H61.7512V18.0801H57.3966V19.7963L57.4212 19.8204ZM47.359 13.8743H44.7266V23.5911H51.8858V21.4641H47.359V13.8501V13.8743Z" fill="white"/>
</g>
<defs>
<clipPath id="clip0_1186_4563">
<rect width="85" height="35" fill="white"/>
</clipPath>
</defs>
</svg>
