<svg width="93" height="34" viewBox="0 0 93 34" fill="none" xmlns="http://www.w3.org/2000/svg">
<path d="M0 16.1432L2.05541 17.3718L7.14124 13.981L5.13855 12.3347L0 16.1432Z" fill="#BDC4CC"/>
<path d="M0 24.8414L2.05541 26.0454L7.14124 22.6546L5.13855 21.0083L0 24.8414Z" fill="#BDC4CC"/>
<path d="M13.8345 0V7.05192L0 16.0695V9.31247L13.8345 0Z" fill="white"/>
<path d="M13.8345 8.87024V15.9222L0 24.9398V18.1827L13.8345 8.87024Z" fill="white"/>
<path d="M13.8345 17.8141V24.866L0 33.8836V27.1266L13.8345 17.8141Z" fill="white"/>
<path d="M25.4297 6.33936H41.2405V10.3936H30.1202V14.5461H39.8702V18.4038H30.1202V26.6843H25.4297V6.33936Z" fill="white"/>
<path d="M31.041 22.802L33.4917 26.6842H41.1599V22.802H31.041Z" fill="#BDC3CE"/>
<path d="M44.4277 6.33936V26.6843H49.0655V13.2684L58.6048 26.6843H63.1635V6.33936H58.473V19.8289L49.0919 6.33936H44.4277Z" fill="white"/>
<path d="M66.6172 6.33936V26.6843H71.3605V16.0941L80.03 26.6843H85.9855L77.1051 15.873L85.801 6.33936H80.0828L71.3605 15.6764V6.33936H66.6172Z" fill="white"/>
<path d="M87.8027 6.33936V26.6843H92.4406V6.33936" fill="white"/>
</svg>
