<svg width="102" height="53" viewBox="0 0 102 53" fill="none" xmlns="http://www.w3.org/2000/svg">
<path d="M47.6345 39.536H40.625V22.6064H47.6345V39.536Z" fill="#0075C2"/>
<path d="M79.098 20.6407V39.5114H72.0358V20.6407H66.5547V14.2522H84.6054V20.6407H79.1243H79.098Z" fill="#0075C2"/>
<path d="M94.0114 39.536H87.002V22.6064H94.0114V39.536Z" fill="#0075C2"/>
<path d="M48.5552 17.3727C48.5552 19.6578 46.5789 21.5007 44.1282 21.5007C41.6775 21.5007 39.7012 19.6578 39.7012 17.3727C39.7012 15.0876 41.6775 13.2448 44.1282 13.2448C46.5789 13.2448 48.5552 15.0876 48.5552 17.3727Z" fill="#0075C2"/>
<path d="M40.9395 44.1307C54.9057 38.9216 68.1077 31.968 68.1077 26.7835C68.1077 24.1789 66.2895 22.631 61.5726 22.0904C58.5422 21.7464 55.0638 22.0413 55.6699 19.4859C56.276 17.0042 63.0746 14.6699 66.5267 14.2522V9.11682C57.33 12.0408 49.1084 15.8493 49.1084 21.4024C49.1084 24.0561 50.8212 26.8326 55.6435 27.2503C60.2814 27.6435 61.2564 28.8229 61.2564 30.4692C61.2564 33.7126 52.5604 38.9216 40.9395 44.1307Z" fill="#D80C18"/>
<path d="M90.4544 21.5007C92.8994 21.5007 94.8814 19.6525 94.8814 17.3727C94.8814 15.0929 92.8994 13.2448 90.4544 13.2448C88.0094 13.2448 86.0273 15.0929 86.0273 17.3727C86.0273 19.6525 88.0094 21.5007 90.4544 21.5007Z" fill="#0075C2"/>
<path d="M5.26046 48.4307C2.44086 43.6393 15.353 32.9017 15.353 32.9017C3.126 41.2314 -1.5382 47.7427 0.438158 50.8633C2.75708 54.4998 16.5652 53.9838 37.4355 45.4576C20.6497 51.5512 7.34222 51.9444 5.26046 48.4307Z" fill="#0075C2"/>
<path d="M100.81 2.58092C97.0944 -3.09502 76.8039 0.566086 49.3457 13.8099C72.5613 3.98148 93.1417 -0.121906 97.0944 4.9889C98.3856 6.65973 97.9113 9.97684 94.8809 14.1048C97.516 11.7214 102.681 5.45575 100.81 2.58092Z" fill="#0075C2"/>
<path d="M17.3027 39.5359V14.2522H24.3122V25.5058L30.1886 14.2522H38.3048L31.717 25.7761L38.4629 39.5359H30.6629L24.3122 26.0709V39.5359H17.3027Z" fill="#0075C2"/>
<path d="M44.5498 44.8679H45.6829L46.2099 47.7919L46.7633 44.8679H48.0018L48.5816 47.7919L49.1086 44.8679H50.189L49.2403 48.9959H47.9491L47.3694 46.0719L46.816 48.9959H45.4984L44.5234 44.8679H44.5498Z" fill="white"/>
<path d="M50.3467 44.8679H51.4798L52.0068 47.7919L52.5602 44.8679H53.7987L54.3784 47.7919L54.9055 44.8679H55.9859L55.0372 48.9959H53.746L53.1663 46.0719L52.6129 48.9959H51.2953L50.3203 44.8679H50.3467Z" fill="white"/>
<path d="M56.1435 44.8679H57.2766L57.8037 47.7919L58.3571 44.8679H59.5956L60.1753 47.7919L60.7023 44.8679H61.7827L60.8341 48.9959H59.5429L58.9631 46.0719L58.4098 48.9959H57.0922L56.1172 44.8679H56.1435Z" fill="white"/>
<path d="M63.1019 47.7919V48.9959H62.0215V47.7919H63.1019Z" fill="white"/>
<path d="M65.1038 43.5165V46.4159L66.2369 44.8679H67.4754L66.2106 46.4896L67.6862 48.9959H66.4477L65.4991 47.3004L65.1038 47.7919V48.9959H63.9707V43.5165H65.1038Z" fill="white"/>
<path d="M68.082 44.8679H69.2151V48.9958H68.082V44.8679ZM68.082 43.4427H69.2151V44.3519H68.082V43.4427Z" fill="white"/>
<path d="M70.848 47.6444V47.7918C70.848 48.1604 71.0588 48.3815 71.4277 48.3815C71.7703 48.3815 72.0075 48.2095 72.0075 47.8901C72.0075 47.6198 71.823 47.497 71.5859 47.4233L70.7953 47.153C70.1629 46.9564 69.8467 46.5878 69.8467 45.9981C69.8467 45.3101 70.2946 44.745 71.4805 44.745C72.5082 44.745 72.9825 45.1627 72.9825 45.9244V46.0964H71.9548C71.9548 45.6787 71.823 45.4821 71.4541 45.4821C71.1642 45.4821 70.9271 45.6296 70.9271 45.9244C70.9271 46.121 71.0325 46.293 71.4277 46.4158L72.1129 46.637C72.8244 46.8581 73.0879 47.2021 73.0879 47.8164C73.0879 48.6764 72.4027 49.1187 71.4541 49.1187C70.1892 49.1187 69.8203 48.6027 69.8203 47.8164V47.669H70.848V47.6444Z" fill="white"/>
<path d="M73.9059 43.6885H75.039V44.8679H75.6978V45.5805H75.039V47.8164C75.039 48.1359 75.1181 48.2587 75.4343 48.2587C75.5133 48.2587 75.6187 48.2587 75.6978 48.2587V48.9958C75.4606 48.9958 75.2235 49.045 74.96 49.045C74.064 49.045 73.9059 48.7993 73.9059 47.9639V45.605H73.3262V44.8925H73.9059V43.713V43.6885Z" fill="white"/>
<path d="M76.1445 44.8679H77.2776V48.9958H76.1445V44.8679ZM76.1445 43.4427H77.2776V44.3519H76.1445V43.4427Z" fill="white"/>
<path d="M79.2288 47.7919V48.9959H78.1484V47.7919H79.2288Z" fill="white"/>
<path d="M80.0449 44.8679H81.1253V45.4084C81.3625 45.0153 81.6787 44.745 82.153 44.745C82.2057 44.745 82.2848 44.745 82.3638 44.745V45.7524C82.3638 45.7524 82.1267 45.7524 82.0213 45.7524C81.626 45.7524 81.178 45.949 81.178 46.4896V48.9712H80.0449V44.8433V44.8679Z" fill="white"/>
<path d="M83.7601 46.465V46.293C83.7601 45.8998 83.8918 45.4821 84.3398 45.4821C84.7878 45.4821 84.8932 45.8261 84.9195 46.465H83.7601ZM85.9999 47.0793V46.8335C85.9999 45.5558 85.7101 44.745 84.3925 44.745C82.8641 44.745 82.627 45.777 82.627 46.8827C82.627 47.9147 82.6796 49.0941 84.3398 49.0941C85.4202 49.0941 85.8945 48.5535 85.9472 47.5953H84.9195C84.8405 48.1112 84.7087 48.3815 84.3134 48.3815C83.8918 48.3815 83.7601 47.9147 83.7601 47.4233V47.1038H85.9999V47.0793Z" fill="white"/>
<path d="M87.7406 47.7919V48.9959H86.6602V47.7919H87.7406Z" fill="white"/>
<path d="M89.7425 43.5165V46.4159L90.8756 44.8679H92.1141L90.8492 46.4896L92.3249 48.9959H91.0864L90.1378 47.3004L89.7425 47.7919V48.9959H88.6094V43.5165H89.7425Z" fill="white"/>
<path d="M92.668 44.8679H93.7484V45.4084C93.9855 45.0153 94.3018 44.745 94.7761 44.745C94.8288 44.745 94.9078 44.745 94.9869 44.745V45.7524C94.9869 45.7524 94.7497 45.7524 94.6443 45.7524C94.2491 45.7524 93.8011 45.949 93.8011 46.4896V48.9712H92.668V44.8433V44.8679Z" fill="white"/>
</svg>
