<?xml version="1.0" encoding="UTF-8"?>
<svg id="_레이어_2" data-name="레이어 2" xmlns="http://www.w3.org/2000/svg" xmlns:xlink="http://www.w3.org/1999/xlink" viewBox="0 0 243.77 103.2">
  <defs>
    <style>
      .cls-1 {
        fill: url(#_무제_그라디언트_57);
        fill-rule: evenodd;
      }

      .cls-2 {
        fill: #231815;
      }
    </style>
    <linearGradient id="_무제_그라디언트_57" data-name="무제 그라디언트 57" x1="0" y1="51.6" x2="96.9" y2="51.6" gradientUnits="userSpaceOnUse">
      <stop offset="0" stop-color="#2668aa"/>
      <stop offset="1" stop-color="#0b3c84"/>
    </linearGradient>
  </defs>
  <g id="_레이어_1-2" data-name="레이어 1">
    <g>
      <path class="cls-1" d="M49.05,20.84c-2.56-1.48-3.74-1.82-5.32-1.53-.99.17-1.82.62-9.87,5.47-16.38,9.87-15.76,9.46-16.69,10.91-.93,1.43-.94,1.63-.89,12.21.05,9.73.05,9.75.44,10.57.71,1.55,1.4,2.19,4.04,3.74,1.36.81,3.65,2.16,5.08,3.01,2.91,1.72,4.98,2.95,10.19,5.98,1.95,1.13,3.74,2.27,4.01,2.54l.45.49v8.44c0,5.35-.07,8.54-.17,8.74-.1.19-.44.37-.77.44-.54.1-.89-.07-3.91-1.78-6.03-3.45-17.53-10.09-23.86-13.77-3.42-1.99-6.99-4.06-7.91-4.6-1.99-1.13-3.01-1.99-3.5-2.93l-.37-.67V27.51l.37-.67c.74-1.36.98-1.53,14.53-9.65C27.56,9.61,43.19.47,43.95.19c.83-.29,2.78-.24,3.54.12.62.29,3.77,2.04,15.24,8.49,4.82,2.71,5.39,3.15,5.39,4.16s-.51,1.43-7.21,5.46c-6.36,3.82-6.48,3.87-7.53,3.94-1.36.08-1.8-.07-4.33-1.5ZM96.54,64.55c-.27-.27-.42-.29-.81-.13-.27.1-6.57,3.87-14.01,8.38-7.44,4.53-13.84,8.35-14.21,8.52-1.4.64-2.96.29-3.65-.84-.34-.52-.39-.84-.39-2.21s.05-1.72.45-2.53c.25-.51.71-1.16,1.01-1.46.3-.29,3.43-2.26,6.95-4.38,3.52-2.14,9.13-5.52,12.46-7.54,3.33-2.02,6.77-4.09,7.64-4.61,2.59-1.57,4.28-3.72,4.73-6.08.1-.52.17-4.98.17-10.86,0-10.99,0-11.01-1.06-12.39-.39-.52-1.2-1.09-2.98-2.14-1.35-.77-5.29-3.1-8.76-5.14-7.09-4.18-7.58-4.38-9.31-3.97-.35.08-.84.25-1.11.39-1.5.79-18.05,10.99-18.5,11.45-1.16,1.09-1.13.76-1.18,8.96-.05,6.67-.02,7.46.22,7.71.15.15.42.27.59.27.29,0,4.04-2.22,13.55-8,1.94-1.18,3.82-2.26,4.19-2.37.79-.29,2.54-.3,3.32-.05.96.34,2.86,1.53,3.55,2.24,1.04,1.09,1.36,2.16,1.38,4.73.02,1.65-.05,2.42-.27,3.13-.34,1.08-1.3,2.44-2.17,3.11-.32.24-3.06,1.95-6.13,3.81-3.05,1.87-7.37,4.5-9.6,5.84-2.22,1.35-6.25,3.79-8.92,5.4-5.14,3.1-6.11,3.87-6.84,5.34l-.4.81-.05,12.34c-.03,12.19-.03,12.34.3,13.15.2.44.61,1.04.89,1.33.54.52,7.12,4.51,9.51,5.78,1.04.56,1.38.66,2.27.66,1.5,0,2.04-.2,4.53-1.67,1.23-.72,5.61-3.32,9.73-5.74,4.13-2.44,10.34-6.1,13.81-8.13,3.47-2.04,6.65-3.91,7.07-4.16.42-.24,1.01-.77,1.3-1.16,1.03-1.33,1.06-1.63,1.06-9.95,0-7.37,0-7.53-.35-7.83Z"/>
      <g>
        <path class="cls-2" d="M110.55,98.74c-3.08-2.97-4.62-7.2-4.62-12.7V29.27h13.07v54.73c0,2.72.64,4.57,1.92,5.55,1.28.98,3.63,1.44,13.67,1.39v12.25h-10.69c-5.83,0-10.28-1.48-13.36-4.45Z"/>
        <path class="cls-2" d="M141.33,99.52c-2.67-2.45-4-5.99-4-10.62v-1.88c0-10.24,4.9-15.36,14.7-15.36h22.87v-4c0-1.58-.48-2.79-1.43-3.64-.95-.84-2.25-1.27-3.88-1.27h-28.02v-10.62h30.06c5.61,0,9.6.94,11.97,2.82,2.37,1.88,3.55,5.08,3.55,9.6v31.12c0,2.01-.76,3.77-2.29,5.27-1.53,1.5-3.46,2.25-5.8,2.25h-26.22c-5.01,0-8.85-1.23-11.52-3.68ZM174.17,91.88c.49-.46.74-1.32.74-2.57v-7.03h-19.61c-2.34,0-4.02.4-5.02,1.18-1.01.79-1.51,2.14-1.51,4.04,0,1.74.5,3.02,1.51,3.84,1.01.82,2.68,1.23,5.02,1.23h15.93c1.47,0,2.45-.23,2.94-.69Z"/>
        <path class="cls-2" d="M193.85,101.48c-1.25-1.14-1.88-3.08-1.88-5.8V29.27h13.07v22.87h21.57c5.5,0,9.73,1.38,12.7,4.13,2.97,2.75,4.45,6.82,4.45,12.21v18.38c0,5.39-1.48,9.46-4.45,12.21-2.97,2.75-7.2,4.13-12.7,4.13h-26.55c-2.89,0-4.96-.57-6.21-1.72ZM229.1,90.82c1.06-1.17,1.59-3.31,1.59-6.41v-13.48c0-3.1-.53-5.24-1.59-6.41-1.06-1.17-2.98-1.76-5.76-1.76h-18.3v26.47c0,1.47.2,2.4.61,2.78.41.38,1.37.57,2.9.57h14.79c2.78,0,4.7-.59,5.76-1.76Z"/>
      </g>
    </g>
  </g>
</svg>