<svg width="246" height="395" viewBox="0 0 246 395" fill="none" xmlns="http://www.w3.org/2000/svg">
<path fill-rule="evenodd" clip-rule="evenodd" d="M203.088 0C198.098 6.73813 177.54 19.9959 135.226 19.1217C130.569 20.0323 120.855 24.6943 119.258 36.0581C112.938 37.8792 100.696 45.3458 102.293 60.6432C115.266 56.6367 143.609 55.7261 153.189 84.1356C156.183 90.5095 156.183 112.436 132.232 149.149C102.293 195.042 88.8201 223.997 91.814 226.729L186.621 131.667C193.939 124.382 206.38 103.257 197.598 77.0332C201.091 78.6722 210.871 84.7912 222.049 96.1549C219.055 81.7681 204.684 49.6072 171.152 36.0581C181.132 34.6012 201.492 25.3499 203.088 0ZM130.734 36.6044L138.718 30.0484L146.702 31.6874L147.201 40.4288L141.213 45.3458L133.728 44.2531L130.734 36.6044Z" fill="#04B07B"/>
<path d="M106.783 101.618C109.943 116.369 117.062 146.746 120.255 150.242C126.077 141.683 137.82 123.909 138.219 121.286C138.618 118.664 117.428 107.082 106.783 101.618Z" fill="#04B07B"/>
<path d="M182.629 150.242L181.631 163.354C149.862 194.313 86.1251 257.979 85.3267 264.972C83.9963 260.966 83.4311 250.331 91.814 239.841L182.629 150.242Z" fill="#04B07B"/>
<path d="M199.095 131.667L191.111 139.862L189.615 167.725L104.288 255.685C103.955 255.867 103.29 257.433 103.29 262.241C103.29 267.048 103.955 317.056 104.288 341.459C115.099 356.939 140.714 389.318 156.681 395V348.015L126.243 309.772V268.25L119.257 270.436L118.259 316.328L142.71 345.284C143.209 348.015 142.909 353.042 137.72 351.293L112.272 319.606V262.241L123.748 250.221L126.243 257.324C149.862 235.288 197.199 190.671 197.598 188.485C198.097 185.754 199.095 187.939 199.095 182.476V131.667Z" fill="#04B07B"/>
<path d="M209.075 96.1549V177.012C214.065 169.91 224.144 151.772 224.544 136.037V116.369C223.546 111.999 219.055 101.837 209.075 96.1549Z" fill="#04B07B"/>
<path d="M164.166 234.924C160.008 237.656 151.492 244.212 150.694 248.582C149.895 252.953 150.361 281.727 150.694 295.567C150.694 297.024 151.292 300.047 153.687 300.484C156.083 300.921 190.612 316.692 207.578 324.523C209.241 326.526 211.171 330.97 205.582 332.718L178.138 319.606C176.807 320.698 175.144 324.632 179.136 331.625C184.126 340.367 194.604 350.747 200.592 350.201C205.416 350.929 217.757 349.873 228.535 339.82C232.527 336.36 241.609 328.019 246 322.337C229.367 317.056 195.602 302.669 186.621 294.474C183.46 291.925 176.042 285.624 171.651 280.816C166.162 274.806 163.667 268.25 163.168 259.509C162.769 252.516 163.667 240.205 164.166 234.924Z" fill="#04B07B"/>
<path d="M142.71 255.138L134.227 263.333L133.229 305.947L163.667 342.006C164.832 344.009 166.661 348.999 164.665 352.932C168.324 354.207 175.942 354.462 177.14 345.284C177.306 343.827 176.541 339.929 172.15 335.996C167.759 332.062 150.361 311.775 142.211 302.123L142.71 255.138Z" fill="#04B07B"/>
<path d="M95.805 98.3403C70.3567 87.5957 17.4642 56.3817 9.48037 17.4827C4.65683 27.8631 -1.59714 52.5574 11.9753 68.2918C28.9408 87.9599 46.4052 96.7012 99.7973 114.184L95.805 98.3403Z" fill="#04B07B"/>
<path d="M102.293 123.472C73.3513 115.095 12.3749 93.314 0 73.2089C0.166077 83.225 2.79364 104.787 11.9753 110.906C23.4524 118.555 33.9311 127.842 105.286 135.491L102.293 123.472Z" fill="#04B07B"/>
<path d="M107.781 143.14C81.8335 140.772 25.8468 133.524 9.48037 123.472C16.3 136.766 35.0289 162.043 55.3875 156.798L110.276 150.242L107.781 143.14Z" fill="#04B07B"/>
<path d="M115.266 157.891C96.6371 161.897 57.2837 169.145 48.9007 166.086C57.5498 171.913 79.6383 183.896 98.7993 185.207L115.266 157.891Z" fill="#04B07B"/>
</svg>
