<svg width="29" height="42" viewBox="0 0 29 42" fill="none" xmlns="http://www.w3.org/2000/svg">
<path fill-rule="evenodd" clip-rule="evenodd" d="M23.9413 0C23.353 0.716459 20.9295 2.12614 15.9413 2.0332C15.3922 2.13001 14.2471 2.62573 14.0589 3.83402C13.3138 4.02766 11.8707 4.82158 12.0589 6.44813C13.5883 6.02213 16.9295 5.92531 18.0589 8.94606C18.4119 9.62379 18.4119 11.9552 15.5883 15.8589C12.0589 20.7386 10.4707 23.8174 10.8236 24.1079L22 14C22.8627 13.2254 24.3294 10.9793 23.2941 8.19087C23.7059 8.36515 24.8588 9.01577 26.1765 10.2241C25.8235 8.69433 24.1294 5.27469 20.1765 3.83402C21.353 3.67911 23.7531 2.69544 23.9413 0ZM15.4117 3.89212L16.3529 3.19502L17.2941 3.36929L17.3529 4.29876L16.647 4.82158L15.7647 4.70539L15.4117 3.89212Z" fill="#FF084A"/>
<path d="M12.5882 10.805C12.9608 12.3734 13.8 15.6033 14.1764 15.9751C14.8627 15.065 16.247 13.1751 16.2941 12.8963C16.3412 12.6174 13.8431 11.3859 12.5882 10.805Z" fill="#FF084A"/>
<path d="M21.5294 15.9751L21.4118 17.3693C17.6667 20.6611 10.153 27.4307 10.0588 28.1743C9.902 27.7483 9.83537 26.6174 10.8236 25.5021L21.5294 15.9751Z" fill="#FF084A"/>
<path d="M23.4706 14L22.5294 14.8714L22.3529 17.834L12.2941 27.1867C12.2549 27.2061 12.1764 27.3726 12.1764 27.8838C12.1764 28.395 12.2549 33.7123 12.2941 36.3071C13.5686 37.953 16.5882 41.3959 18.4706 42V37.0042L14.8823 32.9378V28.5228L14.0588 28.7552L13.9412 33.6349L16.8235 36.7137C16.8823 37.0042 16.847 37.5386 16.2353 37.3527L13.2353 33.9834V27.8838L14.5882 26.6058L14.8823 27.361C17.6666 25.018 23.247 20.2739 23.2941 20.0415C23.3529 19.751 23.4706 19.9834 23.4706 19.4025V14Z" fill="#FF084A"/>
<path d="M24.6471 10.2241V18.8216C25.2353 18.0664 26.4235 16.1378 26.4706 14.4647V12.3734C26.3529 11.9087 25.8235 10.8282 24.6471 10.2241Z" fill="#FF084A"/>
<path d="M19.3529 24.9793C18.8627 25.2697 17.8588 25.9668 17.7647 26.4315C17.6706 26.8963 17.7255 29.9557 17.7647 31.4274C17.7647 31.5823 17.8353 31.9037 18.1176 31.9502C18.4 31.9967 22.4706 33.6736 24.4706 34.5062C24.6667 34.7192 24.8941 35.1917 24.2353 35.3776L21 33.9834C20.8431 34.0996 20.647 34.5178 21.1176 35.2614C21.7059 36.1909 22.9412 37.2946 23.6471 37.2365C24.2157 37.314 25.6706 37.2017 26.9412 36.1328C27.4118 35.7649 28.4824 34.878 29 34.2739C27.0392 33.7123 23.0588 32.1826 22 31.3112C21.6274 31.0401 20.7529 30.3701 20.2353 29.8589C19.5882 29.2199 19.2941 28.5228 19.2353 27.5934C19.1882 26.8498 19.2941 25.5408 19.3529 24.9793Z" fill="#FF084A"/>
<path d="M16.8235 27.1286L15.8235 28L15.7059 32.5311L19.2941 36.3651C19.4314 36.5781 19.647 37.1087 19.4117 37.527C19.8431 37.6625 20.7412 37.6896 20.8823 36.7137C20.9019 36.5588 20.8118 36.1444 20.2941 35.7261C19.7765 35.3079 17.7255 33.1508 16.7647 32.1245L16.8235 27.1286Z" fill="#FF084A"/>
<path d="M11.2941 10.4564C8.29409 9.31397 2.05878 5.99502 1.1176 1.85892C0.548976 2.96266 -0.18828 5.58838 1.41172 7.26141C3.41173 9.3527 5.47054 10.2822 11.7647 12.1411L11.2941 10.4564Z" fill="#FC3468"/>
<path d="M12.0589 13.1286C8.64711 12.2379 1.45883 9.92199 0 7.78423C0.0195782 8.84924 0.329332 11.1419 1.41172 11.7925C2.76471 12.6058 4.00001 13.5934 12.4118 14.4066L12.0589 13.1286Z" fill="#FF6289"/>
<path d="M12.7059 15.2199C9.64704 14.9682 3.04698 14.1975 1.1176 13.1286C1.92154 14.5422 4.12942 17.2299 6.52942 16.6722L13 15.9751L12.7059 15.2199Z" fill="#FF93AC"/>
<path d="M13.5883 16.7884C11.3922 17.2144 6.75295 17.9851 5.76471 17.6598C6.78432 18.2794 9.38825 19.5535 11.6471 19.6929L13.5883 16.7884Z" fill="#FFC2CD"/>
</svg>
