<svg width="51" height="56" viewBox="0 0 51 56" fill="none" xmlns="http://www.w3.org/2000/svg">
<path d="M42.2945 19.3333C43.77 19.3336 45.2156 19.7496 46.4657 20.5335C47.7157 21.3175 48.7197 22.4377 49.3625 23.7659C50.0053 25.094 50.2609 26.5764 50.1002 28.0431C49.9394 29.5099 49.3687 30.9017 48.4535 32.0591C47.5383 33.2165 46.3156 34.0927 44.9254 34.5873C43.5352 35.0819 42.0339 35.1748 40.5933 34.8556C39.1527 34.5363 37.8312 33.8177 36.7802 32.7821C35.7291 31.7464 34.9911 30.4357 34.6506 29H27.4006C27.2176 30.1722 26.7717 31.2877 26.0962 32.263C25.4206 33.2383 24.5331 34.048 23.5 34.6314C22.467 35.2147 21.3153 35.5566 20.1312 35.6315C18.9472 35.7063 17.7616 35.5121 16.6633 35.0634L12.9054 41.7116C14.3794 42.9496 15.3475 44.6857 15.6258 46.5903C15.9041 48.495 15.4733 50.4355 14.4152 52.0435C13.3571 53.6514 11.7454 54.8148 9.88605 55.3128C8.02671 55.8108 6.04924 55.6086 4.32913 54.7447C2.60902 53.8808 1.26604 52.4153 0.555193 50.6265C-0.155651 48.8377 -0.184858 46.8502 0.473118 45.0412C1.13109 43.2323 2.43043 41.728 4.12442 40.8139C5.81841 39.8999 7.78908 39.6397 9.66225 40.0828L13.7029 32.9367C12.4632 31.5096 11.7816 29.6821 11.7841 27.7916C11.7841 25.5997 12.6807 23.618 14.1282 22.1946L10.2543 15.3361C9.07635 15.7121 7.8263 15.8048 6.60573 15.6069C5.38516 15.4089 4.2285 14.9258 3.22971 14.1969C2.23092 13.4679 1.41817 12.5136 0.857477 11.4115C0.296789 10.3095 0.00397849 9.09065 0.00283298 7.85413C0.0028395 6.55933 0.322957 5.28461 0.934694 4.14343C1.54643 3.00225 2.43081 2.03 3.50912 1.31323C4.58743 0.596458 5.82622 0.157391 7.11524 0.0351073C8.40425 -0.0871766 9.70351 0.111116 10.8974 0.612337C12.0912 1.11356 13.1426 1.90216 13.9581 2.90795C14.7735 3.91375 15.3276 5.10553 15.5711 6.37723C15.8145 7.64894 15.7398 8.96111 15.3536 10.197C14.9674 11.4328 14.2816 12.554 13.3573 13.4608L17.2312 20.3145C19.2127 19.6762 21.3666 19.8506 23.2195 20.7995C25.0724 21.7484 26.4728 23.3941 27.113 25.375H34.6506C35.0586 23.6545 36.0353 22.122 37.4225 21.0256C38.8097 19.9292 40.5263 19.3329 42.2945 19.3333ZM19.6383 23.5625C19.0745 23.5488 18.5138 23.6481 17.989 23.8543C17.4641 24.0606 16.9859 24.3697 16.5823 24.7636C16.1787 25.1574 15.858 25.6279 15.6389 26.1475C15.4199 26.6671 15.307 27.2253 15.3068 27.7892C15.3066 28.3531 15.4192 28.9113 15.638 29.431C15.8567 29.9508 16.1772 30.4215 16.5806 30.8156C16.9839 31.2096 17.462 31.519 17.9867 31.7256C18.5114 31.9321 19.0721 32.0317 19.6358 32.0184C20.7397 31.9923 21.7895 31.5356 22.5611 30.7458C23.3327 29.956 23.7648 28.8957 23.7651 27.7916C23.7654 26.6875 23.3339 25.627 22.5628 24.8367C21.7917 24.0465 20.7421 23.5892 19.6383 23.5625ZM7.857 3.62496C6.73536 3.62496 5.65965 4.07054 4.86653 4.86366C4.07341 5.65678 3.62783 6.73249 3.62783 7.85413C3.62783 8.97577 4.07341 10.0515 4.86653 10.8446C5.65965 11.6377 6.73536 12.0833 7.857 12.0833C8.97864 12.0833 10.0543 11.6377 10.8475 10.8446C11.6406 10.0515 12.0862 8.97577 12.0862 7.85413C12.0862 6.73249 11.6406 5.65678 10.8475 4.86366C10.0543 4.07054 8.97864 3.62496 7.857 3.62496ZM38.0653 27.1875C38.0653 28.3091 38.5109 29.3848 39.304 30.1779C40.0972 30.9711 41.1729 31.4166 42.2945 31.4166C43.4161 31.4166 44.4919 30.9711 45.285 30.1779C46.0781 29.3848 46.5237 28.3091 46.5237 27.1875C46.5237 26.0658 46.0781 24.9901 45.285 24.197C44.4919 23.4039 43.4161 22.9583 42.2945 22.9583C41.1729 22.9583 40.0972 23.4039 39.304 24.197C38.5109 24.9901 38.0653 26.0658 38.0653 27.1875ZM3.62783 47.7291C3.62815 48.8511 4.07416 49.927 4.86774 50.7201C5.66131 51.5132 6.73745 51.9586 7.85942 51.9583C8.98138 51.958 10.0573 51.512 10.8504 50.7184C11.6435 49.9248 12.0889 48.8487 12.0886 47.7267C12.0884 47.1712 11.9788 46.6211 11.7661 46.1079C11.5534 45.5947 11.2416 45.1285 10.8487 44.7357C10.4557 44.343 9.9893 44.0316 9.47599 43.8191C8.96267 43.6067 8.41254 43.4974 7.857 43.4976C7.30146 43.4977 6.75139 43.6073 6.2382 43.82C5.72501 44.0328 5.25874 44.3445 4.86603 44.7375C4.47331 45.1304 4.16184 45.5968 3.94939 46.1101C3.73694 46.6235 3.62767 47.1736 3.62783 47.7291Z" fill="#0EA5E9"/>
</svg>
