<svg width="122" height="122" viewBox="0 0 122 122" fill="none" xmlns="http://www.w3.org/2000/svg">
<path d="M18.6035 104.769C12.7833 99.1478 8.14099 92.4237 4.94732 84.9891C1.75365 77.5545 0.0726115 69.5583 0.0023008 61.467C-0.0680099 53.3758 1.47381 45.3515 4.5378 37.8626C7.6018 30.3736 12.1266 23.5698 17.8482 17.8482C23.5698 12.1266 30.3736 7.6018 37.8626 4.5378C45.3515 1.47381 53.3758 -0.0680099 61.467 0.0023008C69.5583 0.0726115 77.5545 1.75365 84.9891 4.94732C92.4237 8.14099 99.1478 12.7833 104.769 18.6035C115.869 30.0964 122.012 45.4894 121.873 61.467C121.734 77.4446 115.325 92.7285 104.027 104.027C92.7285 115.325 77.4446 121.734 61.467 121.873C45.4894 122.012 30.0964 115.869 18.6035 104.769ZM96.1769 96.1769C105.324 87.0294 110.463 74.6228 110.463 61.6863C110.463 48.7498 105.324 36.3432 96.1769 27.1957C87.0294 18.0482 74.6228 12.9092 61.6863 12.9092C48.7498 12.9092 36.3432 18.0482 27.1957 27.1957C18.0482 36.3432 12.9092 48.7498 12.9092 61.6863C12.9092 74.6228 18.0482 87.0294 27.1957 96.1769C36.3432 105.324 48.7498 110.463 61.6863 110.463C74.6228 110.463 87.0294 105.324 96.1769 96.1769ZM55.5926 31.2176H67.7801V67.7801H55.5926V31.2176ZM55.5926 79.9676H67.7801V92.1551H55.5926V79.9676Z" fill="#FF4854"/>
</svg>
