<svg width="19" height="19" viewBox="0 0 19 19" fill="none" xmlns="http://www.w3.org/2000/svg">
<path d="M9.12083 14.6667C9.44167 14.6667 9.713 14.5557 9.93483 14.3339C10.1567 14.1121 10.2673 13.8411 10.2667 13.5208C10.2661 13.2006 10.1554 12.9293 9.93483 12.7068C9.71422 12.4844 9.44289 12.3738 9.12083 12.375C8.79878 12.3762 8.52775 12.4871 8.30775 12.7077C8.08775 12.9284 7.97683 13.1994 7.975 13.5208C7.97317 13.8423 8.08408 14.1136 8.30775 14.3348C8.53142 14.5561 8.80245 14.6667 9.12083 14.6667ZM9.16667 18.3333C7.89861 18.3333 6.70695 18.0926 5.59167 17.611C4.47639 17.1294 3.50625 16.4765 2.68125 15.6521C1.85625 14.8277 1.20328 13.8576 0.722335 12.7417C0.24139 11.6258 0.000612271 10.4341 1.16034e-06 9.16667C-0.000609951 7.89922 0.240168 6.70756 0.722335 5.59167C1.2045 4.47578 1.85747 3.50564 2.68125 2.68125C3.50503 1.85686 4.47517 1.20389 5.59167 0.722333C6.70817 0.240778 7.89983 0 9.16667 0C10.4335 0 11.6252 0.240778 12.7417 0.722333C13.8582 1.20389 14.8283 1.85686 15.6521 2.68125C16.4759 3.50564 17.1291 4.47578 17.6119 5.59167C18.0947 6.70756 18.3352 7.89922 18.3333 9.16667C18.3315 10.4341 18.0907 11.6258 17.611 12.7417C17.1313 13.8576 16.4783 14.8277 15.6521 15.6521C14.8259 16.4765 13.8557 17.1297 12.7417 17.6119C11.6276 18.0941 10.4359 18.3346 9.16667 18.3333ZM9.16667 16.5C11.2139 16.5 12.9479 15.7896 14.3688 14.3687C15.7896 12.9479 16.5 11.2139 16.5 9.16667C16.5 7.11944 15.7896 5.38542 14.3688 3.96458C12.9479 2.54375 11.2139 1.83333 9.16667 1.83333C7.11945 1.83333 5.38542 2.54375 3.96458 3.96458C2.54375 5.38542 1.83333 7.11944 1.83333 9.16667C1.83333 11.2139 2.54375 12.9479 3.96458 14.3687C5.38542 15.7896 7.11945 16.5 9.16667 16.5ZM9.25833 5.225C9.64028 5.225 9.97272 5.34722 10.2557 5.59167C10.5386 5.83611 10.6798 6.14167 10.6792 6.50833C10.6792 6.84444 10.5762 7.14236 10.3703 7.40208C10.1643 7.66181 9.93117 7.90625 9.67083 8.13542C9.31945 8.44097 9.01022 8.77708 8.74317 9.14375C8.47611 9.51042 8.34228 9.92292 8.34167 10.3812C8.34167 10.5951 8.42203 10.7748 8.58275 10.9202C8.74347 11.0657 8.93047 11.1381 9.14375 11.1375C9.37292 11.1375 9.56786 11.0611 9.72858 10.9083C9.88931 10.7556 9.99228 10.5646 10.0375 10.3354C10.0986 10.0146 10.2361 9.72828 10.45 9.4765C10.6639 9.22472 10.8931 8.98394 11.1375 8.75417C11.4889 8.41806 11.7908 8.05139 12.0432 7.65417C12.2956 7.25694 12.4214 6.81389 12.4208 6.325C12.4208 5.54583 12.104 4.90814 11.4703 4.41192C10.8365 3.91569 10.0992 3.66728 9.25833 3.66667C8.67778 3.66667 8.12411 3.78889 7.59733 4.03333C7.07056 4.27778 6.66936 4.65208 6.39375 5.15625C6.28681 5.33958 6.25258 5.53453 6.29108 5.74108C6.32958 5.94764 6.43256 6.10408 6.6 6.21042C6.81389 6.33264 7.03542 6.37083 7.26458 6.325C7.49375 6.27917 7.68472 6.14931 7.8375 5.93542C8.00556 5.70625 8.21578 5.53056 8.46817 5.40833C8.72056 5.28611 8.98395 5.225 9.25833 5.225Z" fill="white"/>
</svg>
