<svg width="14" height="14" viewBox="0 0 14 14" fill="none" xmlns="http://www.w3.org/2000/svg">
<path d="M5.625 5C5.625 4.63314 5.76183 4.39852 5.94147 4.2461C6.1347 4.08215 6.4146 3.98438 6.71875 3.98438C7.0229 3.98438 7.3028 4.08215 7.49603 4.2461C7.67567 4.39852 7.8125 4.63314 7.8125 5C7.8125 5.27323 7.74812 5.42492 7.67333 5.5371C7.58607 5.66798 7.47126 5.77119 7.27709 5.94573L7.23815 5.98075C7.0384 6.16053 6.7756 6.40356 6.57523 6.75756C6.36873 7.12237 6.25 7.56318 6.25 8.125C6.25 8.47018 6.52982 8.75 6.875 8.75C7.22018 8.75 7.5 8.47018 7.5 8.125C7.5 7.74932 7.57658 7.52607 7.66305 7.3733C7.75565 7.20972 7.88348 7.08166 8.07435 6.90987C8.09154 6.89441 8.10965 6.87826 8.12853 6.86143C8.29933 6.70919 8.53327 6.50065 8.71339 6.23048C8.93157 5.90321 9.0625 5.50802 9.0625 5C9.0625 4.27311 8.76964 3.68742 8.30475 3.29296C7.85345 2.91004 7.27398 2.73438 6.71875 2.73438C6.16352 2.73438 5.58405 2.91004 5.13275 3.29296C4.66786 3.68742 4.375 4.27311 4.375 5C4.375 5.34518 4.65482 5.625 5 5.625C5.34518 5.625 5.625 5.34518 5.625 5Z" fill="#0F172A" fill-opacity="0.5"/>
<path d="M7.3437 11.0448C7.5759 10.7894 7.55709 10.3941 7.30168 10.1619C7.04628 9.92973 6.651 9.94854 6.4188 10.2039L6.41255 10.2108C6.18035 10.4662 6.19916 10.8615 6.45457 11.0937C6.70997 11.3259 7.10525 11.3071 7.33745 11.0517L7.3437 11.0448Z" fill="#0F172A" fill-opacity="0.5"/>
<path fill-rule="evenodd" clip-rule="evenodd" d="M6.875 0C3.07795 0 0 3.07795 0 6.875C0 10.6721 3.07795 13.75 6.875 13.75C10.6721 13.75 13.75 10.6721 13.75 6.875C13.75 3.07795 10.6721 0 6.875 0ZM1.25 6.875C1.25 3.7683 3.7683 1.25 6.875 1.25C9.9817 1.25 12.5 3.7683 12.5 6.875C12.5 9.9817 9.9817 12.5 6.875 12.5C3.7683 12.5 1.25 9.9817 1.25 6.875Z" fill="#0F172A" fill-opacity="0.5"/>
</svg>
