<svg width="10" height="13" viewBox="0 0 10 13" fill="none" xmlns="http://www.w3.org/2000/svg">
<path d="M1.875 0C1.37772 0 0.900806 0.197544 0.549175 0.549175C0.197544 0.900806 0 1.37772 0 1.875V10.625C0 11.1223 0.197544 11.5992 0.549175 11.9508C0.900805 12.3025 1.37772 12.5 1.875 12.5H8.125C8.62228 12.5 9.09919 12.3025 9.45082 11.9508C9.80245 11.5992 10 11.1223 10 10.625V10C10 9.65482 9.72018 9.375 9.375 9.375C9.02982 9.375 8.75 9.65482 8.75 10V10.625C8.75 10.7908 8.68415 10.9497 8.56694 11.0669C8.44973 11.1842 8.29076 11.25 8.125 11.25H1.875C1.70924 11.25 1.55027 11.1842 1.43306 11.0669C1.31585 10.9497 1.25 10.7908 1.25 10.625V1.875C1.25 1.70924 1.31585 1.55027 1.43306 1.43306C1.55027 1.31585 1.70924 1.25 1.875 1.25H8.125C8.29076 1.25 8.44973 1.31585 8.56694 1.43306C8.68415 1.55027 8.75 1.70924 8.75 1.875V2.5C8.75 2.84518 9.02982 3.125 9.375 3.125C9.72018 3.125 10 2.84518 10 2.5V1.875C10 1.37772 9.80245 0.900805 9.45082 0.549175C9.09919 0.197544 8.62228 0 8.125 0H1.875Z" fill="#CC8889"/>
<path d="M7.94194 3.93306C7.69786 3.68898 7.30214 3.68898 7.05806 3.93306C6.81398 4.17714 6.81398 4.57286 7.05806 4.81694L7.86612 5.625H5C4.65482 5.625 4.375 5.90482 4.375 6.25C4.375 6.59518 4.65482 6.875 5 6.875H7.86612L7.05806 7.68306C6.81398 7.92714 6.81398 8.32286 7.05806 8.56694C7.30214 8.81102 7.69786 8.81102 7.94194 8.56694L9.81694 6.69194C10.061 6.44786 10.061 6.05214 9.81694 5.80806L7.94194 3.93306Z" fill="#CC8889"/>
</svg>
