<svg width="29" height="29" viewBox="0 0 29 29" fill="none" xmlns="http://www.w3.org/2000/svg">
<path d="M12.75 18.4167V15.5833C11.6228 15.5833 10.5418 15.1356 9.7448 14.3385C8.94777 13.5415 8.5 12.4605 8.5 11.3333C8.5 10.2062 8.94777 9.12516 9.7448 8.32813C10.5418 7.5311 11.6228 7.08333 12.75 7.08333V5.66667C12.75 5.29094 12.8993 4.93061 13.1649 4.66493C13.4306 4.39926 13.7909 4.25 14.1667 4.25C14.5424 4.25 14.9027 4.39926 15.1684 4.66493C15.4341 4.93061 15.5833 5.29094 15.5833 5.66667V7.08333H15.6145C16.7332 7.08408 17.8058 7.52881 18.5968 8.31983C19.3879 9.11085 19.8326 10.1835 19.8333 11.3022C19.8333 11.6779 19.6841 12.0382 19.4184 12.3039C19.1527 12.5696 18.7924 12.7188 18.4167 12.7188C18.0409 12.7188 17.6806 12.5696 17.4149 12.3039C17.1493 12.0382 17 11.6779 17 11.3022C16.9993 10.9349 16.853 10.583 16.5934 10.3233C16.3337 10.0636 15.9817 9.91742 15.6145 9.91667H15.5833V12.75C16.7105 12.75 17.7915 13.1978 18.5885 13.9948C19.3856 14.7918 19.8333 15.8728 19.8333 17C19.8333 18.1272 19.3856 19.2082 18.5885 20.0052C17.7915 20.8022 16.7105 21.25 15.5833 21.25V22.6667C15.5833 23.0424 15.4341 23.4027 15.1684 23.6684C14.9027 23.9341 14.5424 24.0833 14.1667 24.0833C13.7909 24.0833 13.4306 23.9341 13.1649 23.6684C12.8993 23.4027 12.75 23.0424 12.75 22.6667V21.25H12.6778C11.5699 21.2496 10.5074 20.8094 9.72405 20.026C8.94065 19.2426 8.50038 18.1801 8.5 17.0723C8.5 16.6965 8.64926 16.3362 8.91493 16.0705C9.18061 15.8048 9.54094 15.6556 9.91667 15.6556C10.2924 15.6556 10.6527 15.8048 10.9184 16.0705C11.1841 16.3362 11.3333 16.6965 11.3333 17.0723C11.3337 17.4287 11.4755 17.7704 11.7275 18.0225C11.9796 18.2745 12.3213 18.4163 12.6778 18.4167H12.75ZM15.5833 18.4167C15.9591 18.4167 16.3194 18.2674 16.5851 18.0017C16.8507 17.7361 17 17.3757 17 17C17 16.6243 16.8507 16.2639 16.5851 15.9983C16.3194 15.7326 15.9591 15.5833 15.5833 15.5833V18.4167ZM12.75 9.91667C12.3743 9.91667 12.0139 10.0659 11.7483 10.3316C11.4826 10.5973 11.3333 10.9576 11.3333 11.3333C11.3333 11.7091 11.4826 12.0694 11.7483 12.3351C12.0139 12.6007 12.3743 12.75 12.75 12.75V9.91667ZM14.1667 28.3333C6.34242 28.3333 0 21.9909 0 14.1667C0 6.34242 6.34242 0 14.1667 0C21.9909 0 28.3333 6.34242 28.3333 14.1667C28.3333 21.9909 21.9909 28.3333 14.1667 28.3333ZM14.1667 25.5C17.1725 25.5 20.0551 24.306 22.1805 22.1805C24.306 20.0551 25.5 17.1725 25.5 14.1667C25.5 11.1609 24.306 8.2782 22.1805 6.15279C20.0551 4.02738 17.1725 2.83333 14.1667 2.83333C11.1609 2.83333 8.2782 4.02738 6.15279 6.15279C4.02738 8.2782 2.83333 11.1609 2.83333 14.1667C2.83333 17.1725 4.02738 20.0551 6.15279 22.1805C8.2782 24.306 11.1609 25.5 14.1667 25.5Z" fill="#FF93AC"/>
</svg>
