<svg width="37" height="37" viewBox="0 0 37 37" fill="none" xmlns="http://www.w3.org/2000/svg">
<path d="M18.2417 29.3333C18.8833 29.3333 19.426 29.1115 19.8697 28.6678C20.3133 28.2242 20.5346 27.6821 20.5333 27.0417C20.5321 26.4012 20.3109 25.8586 19.8697 25.4137C19.4284 24.9688 18.8858 24.7476 18.2417 24.75C17.5976 24.7524 17.0555 24.9743 16.6155 25.4155C16.1755 25.8567 15.9537 26.3988 15.95 27.0417C15.9463 27.6846 16.1682 28.2272 16.6155 28.6697C17.0628 29.1121 17.6049 29.3333 18.2417 29.3333ZM18.3333 36.6667C15.7972 36.6667 13.4139 36.1851 11.1833 35.222C8.95278 34.2589 7.0125 32.9529 5.3625 31.3042C3.7125 29.6554 2.40656 27.7151 1.44467 25.4833C0.48278 23.2516 0.00122454 20.8682 2.32067e-06 18.3333C-0.0012199 15.7984 0.480336 13.4151 1.44467 11.1833C2.409 8.95156 3.71495 7.01128 5.3625 5.3625C7.01006 3.71372 8.95034 2.40778 11.1833 1.44467C13.4163 0.481556 15.7997 0 18.3333 0C20.867 0 23.2503 0.481556 25.4833 1.44467C27.7163 2.40778 29.6566 3.71372 31.3042 5.3625C32.9517 7.01128 34.2583 8.95156 35.2238 11.1833C36.1894 13.4151 36.6703 15.7984 36.6667 18.3333C36.663 20.8682 36.1814 23.2516 35.222 25.4833C34.2626 27.7151 32.9566 29.6554 31.3042 31.3042C29.6517 32.9529 27.7114 34.2595 25.4833 35.2238C23.2552 36.1882 20.8719 36.6691 18.3333 36.6667ZM18.3333 33C22.4278 33 25.8958 31.5792 28.7375 28.7375C31.5792 25.8958 33 22.4278 33 18.3333C33 14.2389 31.5792 10.7708 28.7375 7.92917C25.8958 5.0875 22.4278 3.66667 18.3333 3.66667C14.2389 3.66667 10.7708 5.0875 7.92917 7.92917C5.0875 10.7708 3.66667 14.2389 3.66667 18.3333C3.66667 22.4278 5.0875 25.8958 7.92917 28.7375C10.7708 31.5792 14.2389 33 18.3333 33ZM18.5167 10.45C19.2806 10.45 19.9454 10.6944 20.5113 11.1833C21.0772 11.6722 21.3596 12.2833 21.3583 13.0167C21.3583 13.6889 21.1524 14.2847 20.7405 14.8042C20.3286 15.3236 19.8623 15.8125 19.3417 16.2708C18.6389 16.8819 18.0204 17.5542 17.4863 18.2875C16.9522 19.0208 16.6846 19.8458 16.6833 20.7625C16.6833 21.1903 16.8441 21.5496 17.1655 21.8405C17.4869 22.1314 17.8609 22.2762 18.2875 22.275C18.7458 22.275 19.1357 22.1222 19.4572 21.8167C19.7786 21.5111 19.9846 21.1292 20.075 20.6708C20.1972 20.0292 20.4722 19.4566 20.9 18.953C21.3278 18.4494 21.7861 17.9679 22.275 17.5083C22.9778 16.8361 23.5816 16.1028 24.0863 15.3083C24.5911 14.5139 24.8429 13.6278 24.8417 12.65C24.8417 11.0917 24.2079 9.81628 22.9405 8.82383C21.6731 7.83139 20.1984 7.33456 18.5167 7.33333C17.3556 7.33333 16.2482 7.57778 15.1947 8.06667C14.1411 8.55556 13.3387 9.30417 12.7875 10.3125C12.5736 10.6792 12.5052 11.0691 12.5822 11.4822C12.6592 11.8953 12.8651 12.2082 13.2 12.4208C13.6278 12.6653 14.0708 12.7417 14.5292 12.65C14.9875 12.5583 15.3694 12.2986 15.675 11.8708C16.0111 11.4125 16.4316 11.0611 16.9363 10.8167C17.4411 10.5722 17.9679 10.45 18.5167 10.45Z" fill="#837BBD"/>
</svg>
