<svg width="20" height="14" viewBox="0 0 20 14" fill="none" xmlns="http://www.w3.org/2000/svg">
<path d="M1.125 13.5C0.806254 13.5 0.539254 13.392 0.324004 13.176C0.108754 12.96 0.000753879 12.693 3.87931e-06 12.375C-0.000746121 12.057 0.107254 11.79 0.324004 11.574C0.540754 11.358 0.807754 11.25 1.125 11.25H13.5C13.8188 11.25 14.0861 11.358 14.3021 11.574C14.5181 11.79 14.6258 12.057 14.625 12.375C14.6243 12.693 14.5163 12.9604 14.301 13.1771C14.0858 13.3939 13.8188 13.5015 13.5 13.5H1.125ZM17.8875 11.5875L13.8375 7.5375C13.6125 7.3125 13.5 7.05 13.5 6.75C13.5 6.45 13.6125 6.1875 13.8375 5.9625L17.8875 1.9125C18.0938 1.70625 18.3563 1.60313 18.675 1.60313C18.9938 1.60313 19.2563 1.70625 19.4625 1.9125C19.6688 2.11875 19.7719 2.38125 19.7719 2.7C19.7719 3.01875 19.6688 3.28125 19.4625 3.4875L16.2 6.75L19.4625 10.0125C19.6688 10.2188 19.7719 10.4813 19.7719 10.8C19.7719 11.1188 19.6688 11.3812 19.4625 11.5875C19.2563 11.7937 18.9938 11.8969 18.675 11.8969C18.3563 11.8969 18.0938 11.7937 17.8875 11.5875ZM1.125 7.875C0.806254 7.875 0.539254 7.767 0.324004 7.551C0.108754 7.335 0.000753879 7.068 3.87931e-06 6.75C-0.000746121 6.432 0.107254 6.165 0.324004 5.949C0.540754 5.733 0.807754 5.625 1.125 5.625H10.125C10.4438 5.625 10.7111 5.733 10.9271 5.949C11.1431 6.165 11.2508 6.432 11.25 6.75C11.2493 7.068 11.1413 7.33538 10.926 7.55213C10.7108 7.76888 10.4438 7.8765 10.125 7.875H1.125ZM1.125 2.25C0.806254 2.25 0.539254 2.142 0.324004 1.926C0.108754 1.71 0.000753879 1.443 3.87931e-06 1.125C-0.000746121 0.807 0.107254 0.54 0.324004 0.324C0.540754 0.108 0.807754 0 1.125 0H13.5C13.8188 0 14.0861 0.108 14.3021 0.324C14.5181 0.54 14.6258 0.807 14.625 1.125C14.6243 1.443 14.5163 1.71037 14.301 1.92712C14.0858 2.14387 13.8188 2.2515 13.5 2.25H1.125Z" fill="#0F172A" fill-opacity="0.8"/>
</svg>
