<svg width="15" height="19" viewBox="0 0 15 19" fill="none" xmlns="http://www.w3.org/2000/svg">
<path d="M4.16667 6.66667C3.70643 6.66667 3.33333 7.03976 3.33333 7.5C3.33333 7.96024 3.70643 8.33333 4.16667 8.33333H10.8333C11.2936 8.33333 11.6667 7.96024 11.6667 7.5C11.6667 7.03976 11.2936 6.66667 10.8333 6.66667H4.16667Z" fill="white" fill-opacity="0.8"/>
<path d="M4.16667 10C3.70643 10 3.33333 10.3731 3.33333 10.8333C3.33333 11.2936 3.70643 11.6667 4.16667 11.6667H7.5C7.96024 11.6667 8.33333 11.2936 8.33333 10.8333C8.33333 10.3731 7.96024 10 7.5 10H4.16667Z" fill="white" fill-opacity="0.8"/>
<path d="M4.16667 13.3333C3.70643 13.3333 3.33333 13.7064 3.33333 14.1667C3.33333 14.6269 3.70643 15 4.16667 15H10.8333C11.2936 15 11.6667 14.6269 11.6667 14.1667C11.6667 13.7064 11.2936 13.3333 10.8333 13.3333H4.16667Z" fill="white" fill-opacity="0.8"/>
<path fill-rule="evenodd" clip-rule="evenodd" d="M14.899 3.44799C14.8319 3.28568 14.7335 3.13822 14.6093 3.01408L11.9863 0.391112C11.7365 0.140992 11.3976 0.000311534 11.0441 0H1.33333C0.979711 0 0.640573 0.140476 0.390524 0.390524C0.140476 0.640573 0 0.979711 0 1.33333V17C0 17.1751 0.0344879 17.3485 0.101494 17.5102C0.168499 17.672 0.266711 17.819 0.390524 17.9428C0.514334 18.0666 0.661319 18.1648 0.823089 18.2318C0.984861 18.2988 1.15824 18.3333 1.33333 18.3333H13.6667C13.8418 18.3333 14.0151 18.2988 14.1769 18.2318C14.3387 18.1648 14.4857 18.0666 14.6095 17.9428C14.7333 17.819 14.8315 17.672 14.8985 17.5102C14.9655 17.3485 15 17.1751 15 17V3.95859L14.1667 3.95833L15 3.96038L15 3.95859C15.0002 3.78341 14.9659 3.6099 14.899 3.44799ZM10 3.75C10 4.44036 10.5596 5 11.25 5H13.3333V16.6667H1.66667V1.66667H10V3.75ZM12.5715 3.33333L11.6667 2.42851V3.33333H12.5715Z" fill="white" fill-opacity="0.8"/>
</svg>
