<svg width="19" height="19" viewBox="0 0 19 19" fill="none" xmlns="http://www.w3.org/2000/svg">
<path fill-rule="evenodd" clip-rule="evenodd" d="M9.16667 5.83333C8.28261 5.83333 7.43476 6.18452 6.80964 6.80964C6.18452 7.43476 5.83333 8.28261 5.83333 9.16667C5.83333 10.0507 6.18452 10.8986 6.80964 11.5237C7.43476 12.1488 8.28261 12.5 9.16667 12.5C10.0507 12.5 10.8986 12.1488 11.5237 11.5237C12.1488 10.8986 12.5 10.0507 12.5 9.16667C12.5 8.28261 12.1488 7.43476 11.5237 6.80964C10.8986 6.18452 10.0507 5.83333 9.16667 5.83333ZM7.98815 7.98815C8.30071 7.67559 8.72464 7.5 9.16667 7.5C9.60869 7.5 10.0326 7.67559 10.3452 7.98815C10.6577 8.30071 10.8333 8.72464 10.8333 9.16667C10.8333 9.60869 10.6577 10.0326 10.3452 10.3452C10.0326 10.6577 9.60869 10.8333 9.16667 10.8333C8.72464 10.8333 8.30071 10.6577 7.98815 10.3452C7.67559 10.0326 7.5 9.60869 7.5 9.16667C7.5 8.72464 7.67559 8.30071 7.98815 7.98815Z" fill="white" fill-opacity="0.8"/>
<path fill-rule="evenodd" clip-rule="evenodd" d="M8.3175 0C7.93896 0 7.60798 0.255136 7.51162 0.621206L7.08932 2.22554L5.74762 2.79113L4.72057 1.8774C4.39082 1.58403 3.88951 1.59865 3.57741 1.91074L1.91074 3.57741C1.60883 3.87933 1.58395 4.3606 1.85314 4.69204L2.75325 5.80029L2.20128 7.15823L0.643878 7.52182C0.266767 7.60986 0 7.94608 0 8.33333V10C0 10.3758 0.251489 10.7051 0.614012 10.804L2.22375 11.2431L2.79087 12.5884L1.87805 13.612C1.58404 13.9417 1.59838 14.4436 1.91074 14.7559L3.57741 16.4226C3.87974 16.7249 4.36181 16.7494 4.6932 16.4792L5.80107 15.5761L7.12563 16.121L7.52536 17.704C7.6188 18.0741 7.95168 18.3333 8.33333 18.3333H10C10.3815 18.3333 10.7143 18.0743 10.8079 17.7044L11.2086 16.1207L12.5775 15.5537C12.7153 15.6692 12.8733 15.8049 13.0305 15.9418C13.1867 16.0778 13.3319 16.206 13.4381 16.3003C13.4912 16.3474 13.5344 16.3859 13.5643 16.4126L13.6095 16.4531C13.9391 16.7487 14.4429 16.7356 14.7559 16.4226L16.4226 14.7559C16.7293 14.4492 16.7494 13.9585 16.4689 13.6277L15.5612 12.5572L16.1229 11.2005L17.7096 10.7882C18.0769 10.6928 18.3333 10.3612 18.3333 9.98167V8.33333C18.3333 7.95223 18.0748 7.61969 17.7055 7.52573L16.1286 7.12454L15.5683 5.77111L16.4698 4.70462C16.7494 4.37375 16.7289 3.88376 16.4226 3.57741L14.7559 1.91074C14.4483 1.60315 13.9559 1.5839 13.6252 1.86654L12.5666 2.7714L11.1655 2.19533L10.7518 0.621473C10.6555 0.255272 10.3245 0 9.94583 0H8.3175ZM14.7013 14.1202L14.1312 14.6903L14.1249 14.6849C13.8172 14.4169 13.4207 14.0778 13.1972 13.9179C12.9631 13.7506 12.6594 13.7158 12.3936 13.8259L10.1844 14.7409C9.9413 14.8416 9.76002 15.0513 9.69546 15.3064L9.35127 16.6667H8.9824L8.6388 15.306C8.57416 15.05 8.39203 14.8398 8.14786 14.7393L5.97619 13.846C5.69341 13.7297 5.36963 13.7776 5.13263 13.9708L4.22362 14.7118L3.64576 14.1339L4.38528 13.3046C4.59938 13.0646 4.65618 12.7227 4.53123 12.4263L3.60206 10.2221C3.50265 9.9863 3.30039 9.80923 3.05349 9.74188L1.66667 9.36355V8.99452L3.00029 8.68318C3.26375 8.62167 3.48095 8.43609 3.58283 8.18546L4.48283 5.97129C4.59729 5.68969 4.54934 5.36809 4.35769 5.13213L3.6206 4.22458L4.20007 3.64511L5.03276 4.38593C5.27282 4.59951 5.61429 4.65604 5.91037 4.53123L8.11454 3.60206C8.35277 3.50163 8.5309 3.29632 8.59671 3.04629L8.95987 1.66667H9.30325L9.65905 3.02019C9.72546 3.27284 9.9065 3.47973 10.1481 3.57906L12.4039 4.50656C12.6931 4.62547 13.0246 4.57247 13.2623 4.36929L14.1223 3.63417L14.7022 4.21401L13.9677 5.08287C13.7665 5.32098 13.715 5.65151 13.8342 5.93957L14.7484 8.1479C14.8489 8.39077 15.0581 8.57196 15.3129 8.63677L16.6667 8.9812V9.3372L15.3021 9.69178C15.0491 9.75751 14.8417 9.93809 14.7417 10.1796L13.8267 12.3896C13.7073 12.6781 13.7591 13.0091 13.9611 13.2473L14.7013 14.1202Z" fill="white" fill-opacity="0.8"/>
</svg>
