<svg width="18" height="20" viewBox="0 0 18 20" fill="none" xmlns="http://www.w3.org/2000/svg">
<path d="M14.5843 6.66665C15.0931 6.66677 15.5916 6.8102 16.0226 7.08053C16.4537 7.35086 16.7999 7.73714 17.0215 8.19513C17.2432 8.65311 17.3314 9.16427 17.2759 9.67005C17.2205 10.1758 17.0237 10.6558 16.7081 11.0549C16.3925 11.454 15.9709 11.7561 15.4915 11.9266C15.0122 12.0972 14.4944 12.1293 13.9977 12.0192C13.5009 11.9091 13.0452 11.6613 12.6828 11.3042C12.3204 10.947 12.0659 10.4951 11.9485 9.99999H9.44848C9.38539 10.4042 9.23162 10.7889 8.99868 11.1252C8.76574 11.4615 8.45968 11.7407 8.10345 11.9418C7.74723 12.143 7.35009 12.2609 6.9418 12.2867C6.53352 12.3125 6.12469 12.2455 5.74598 12.0908L4.45014 14.3833C4.95841 14.8102 5.29223 15.4089 5.3882 16.0656C5.48418 16.7224 5.33563 17.3916 4.97077 17.946C4.60591 18.5005 4.05014 18.9017 3.40898 19.0734C2.76783 19.2451 2.08595 19.1754 1.4928 18.8775C0.899661 18.5796 0.436564 18.0742 0.191446 17.4574C-0.0536727 16.8406 -0.0637441 16.1552 0.163144 15.5315C0.390032 14.9077 0.838081 14.389 1.42221 14.0738C2.00635 13.7586 2.68589 13.6689 3.33181 13.8217L4.72514 11.3575C4.29765 10.8654 4.06263 10.2352 4.06348 9.58332C4.06348 8.82749 4.37264 8.14415 4.87181 7.65332L3.53598 5.28832C3.12978 5.41795 2.69872 5.44994 2.27784 5.38168C1.85695 5.31342 1.4581 5.14684 1.11369 4.89548C0.769282 4.64411 0.489022 4.31504 0.295682 3.93501C0.102341 3.55498 0.00137189 3.13471 0.000976889 2.70832C0.000979139 2.26184 0.111364 1.82228 0.322308 1.42877C0.533252 1.03526 0.83821 0.700001 1.21004 0.452838C1.58187 0.205675 2.00904 0.0542728 2.45353 0.012106C2.89802 -0.0300609 3.34604 0.0383159 3.75771 0.211151C4.16939 0.383986 4.53195 0.655917 4.81312 1.00274C5.0943 1.34957 5.28537 1.76053 5.36933 2.19905C5.45329 2.63756 5.42753 3.09004 5.29435 3.5162C5.16117 3.94236 4.9247 4.32898 4.60598 4.64165L5.94181 7.00499C6.62508 6.78489 7.36778 6.84505 8.00672 7.17225C8.64565 7.49945 9.12855 8.06693 9.34931 8.74999H11.9485C12.0892 8.15672 12.426 7.62829 12.9043 7.25021C13.3827 6.87213 13.9746 6.66652 14.5843 6.66665ZM6.77181 8.12499C6.57742 8.12028 6.38406 8.1545 6.20309 8.22563C6.02212 8.29676 5.8572 8.40335 5.71804 8.53915C5.57887 8.67495 5.46827 8.83721 5.39273 9.01639C5.3172 9.19556 5.27826 9.38803 5.2782 9.58248C5.27815 9.77692 5.31698 9.96941 5.39241 10.1486C5.46784 10.3278 5.57835 10.4902 5.71744 10.626C5.85653 10.7619 6.02138 10.8686 6.20231 10.9399C6.38324 11.0111 6.57659 11.0454 6.77098 11.0408C7.15161 11.0318 7.51363 10.8743 7.77969 10.602C8.04576 10.3296 8.19476 9.96405 8.19487 9.58331C8.19498 9.20257 8.04618 8.83689 7.78028 8.56439C7.51437 8.2919 7.15244 8.1342 6.77181 8.12499ZM2.70931 1.24999C2.32254 1.24999 1.9516 1.40363 1.67811 1.67712C1.40462 1.95061 1.25098 2.32155 1.25098 2.70832C1.25098 3.09509 1.40462 3.46603 1.67811 3.73952C1.9516 4.01301 2.32254 4.16665 2.70931 4.16665C3.09608 4.16665 3.46702 4.01301 3.74051 3.73952C4.014 3.46603 4.16764 3.09509 4.16764 2.70832C4.16764 2.32155 4.014 1.95061 3.74051 1.67712C3.46702 1.40363 3.09608 1.24999 2.70931 1.24999ZM13.126 9.37499C13.126 9.76176 13.2796 10.1327 13.5531 10.4062C13.8266 10.6797 14.1975 10.8333 14.5843 10.8333C14.9711 10.8333 15.342 10.6797 15.6155 10.4062C15.889 10.1327 16.0426 9.76176 16.0426 9.37499C16.0426 8.98821 15.889 8.61728 15.6155 8.34379C15.342 8.0703 14.9711 7.91665 14.5843 7.91665C14.1975 7.91665 13.8266 8.0703 13.5531 8.34379C13.2796 8.61728 13.126 8.98821 13.126 9.37499ZM1.25098 16.4583C1.25109 16.8452 1.40488 17.2162 1.67853 17.4897C1.95218 17.7632 2.32326 17.9168 2.71014 17.9167C3.09703 17.9165 3.46802 17.7627 3.74151 17.4891C4.015 17.2155 4.16859 16.8444 4.16848 16.4575C4.16842 16.2659 4.13064 16.0762 4.05728 15.8993C3.98392 15.7223 3.87642 15.5615 3.74092 15.4261C3.60543 15.2907 3.44459 15.1833 3.26758 15.11C3.09058 15.0368 2.90088 14.9991 2.70931 14.9992C2.51774 14.9992 2.32807 15.037 2.1511 15.1104C1.97414 15.1837 1.81336 15.2912 1.67794 15.4267C1.54252 15.5622 1.43512 15.723 1.36186 15.9C1.2886 16.0771 1.25092 16.2668 1.25098 16.4583Z" fill="white" fill-opacity="0.8"/>
</svg>
